<svg aria-hidden="true" style="width:0;height:0;position:absolute;overflow:hidden" xmlns="http://www.w3.org/2000/svg"><defs><symbol id="burger-icon-close-min" viewBox="0 0 32 32"><path d="m16.027 19.046 12.29 12.29a2.172 2.172 0 0 0 3.071-3.072l-12.29-12.291 12.29-12.29A2.172 2.172 0 0 0 28.316.612l-12.29 12.29L3.734.612A2.172 2.172 0 0 0 .666 3.685l-.001-.001 12.288 12.29L.664 28.266a2.172 2.172 0 1 0 3.072 3.072l12.292-12.291z"/></symbol><symbol id="burger-icon-min" viewBox="0 0 33 26"><path d="M2 24h31M2 13h31M2 2h31" stroke-width="3.5" stroke-linecap="round" stroke-linejoin="round"/></symbol><symbol id="ceresit-icon-min" viewBox="0 0 201 32"><path style="fill:var(--color1,#000)" d="M78.125 13.74V3.246a16.472 16.472 0 0 0-6.671-1.426c-8.815 0-15.207 6.296-15.207 14.887 0 4.95 2.064 9.106 5.876 11.918 2.58 1.901 5.758 2.937 9.213 2.937 2.224 0 4.409-.436 6.67-1.354l.319-10.65c-2.263 1.661-4.209 2.612-6.314 2.612-3.335 0-5.36-2.218-5.36-5.464 0-3.444 2.264-5.623 5.559-5.623 2.144.001 4.049.874 5.916 2.654zm12.745 4.315c.199-1.544.993-2.294 2.224-2.294 1.389 0 2.066.713 2.183 2.294h-4.406zm13.738 4.356c.04-.355.04-.713.04-1.069 0-6.572-4.923-11.166-11.792-11.166-6.87 0-11.713 4.83-11.713 10.69 0 5.859 4.884 10.696 11.713 10.696 5.678 0 9.686-2.58 11.157-6.776l-9.014-.594c-.437 1.029-1.112 1.545-1.985 1.545-1.509 0-2.224-.992-2.224-3.011v-.316l13.818.001zm3.06 8.393h9.767v-7.918c0-2.455 1.43-3.841 3.892-3.841.795 0 1.708.315 2.74.87v-9.701c-.24-.039-.477-.039-.715-.039-2.581 0-4.647 1.187-6.235 3.444v-2.812h-9.45v19.997zm28.19-12.749c.199-1.544.993-2.294 2.224-2.294 1.39 0 2.066.713 2.185 2.294h-4.409zm13.739 4.356c.04-.355.04-.713.04-1.069 0-6.572-4.923-11.166-11.792-11.166s-11.714 4.83-11.714 10.69c0 5.859 4.884 10.696 11.714 10.696 5.678 0 9.687-2.58 11.156-6.776l-9.012-.594c-.437 1.029-1.113 1.545-1.985 1.545-1.509 0-2.224-.992-2.224-3.011v-.316l13.818.001zm.954 6.968c2.935 1.453 6.079 2.195 9.251 2.184 6.194 0 9.887-3.372 9.887-7.611 0-2.968-1.866-4.632-5.676-5.542-2.026-.475-3.139-.554-3.139-1.426 0-.594.557-1.031 1.469-1.031 1.072 0 2.542.634 4.328 1.822l2.383-6.019c-2.264-1.029-4.925-1.584-7.664-1.584-5.836 0-9.49 3.128-9.49 7.127 0 3.009 1.748 4.83 5.401 5.663 1.627.355 2.659.355 2.659 1.307 0 .713-.556 1.148-1.587 1.148-1.231 0-3.018-.713-5.241-2.218l-2.58 6.178zm21.678 1.425h9.729V10.809h-9.729v19.995zm10.126-26.212c0-2.771-1.906-4.592-5.24-4.592-3.336 0-5.28 1.821-5.28 4.592s1.983 4.673 5.28 4.673c3.295 0 5.24-1.901 5.24-4.673zm5.322 26.212h9.727V18.173h2.779v-7.364h-2.779V4.197h-9.727v6.612h-2.74v7.364h2.74v12.631z"/><path fill="#cc2229" style="fill:var(--color2,#cc2229)" d="M21.062 1.797c11.457 0 20.801 6.652 20.801 14.806 0 8.157-9.344 14.808-20.8 14.808S.262 24.76.262 16.602c0-8.154 9.344-14.806 20.8-14.806z"/><path fill="#fff" style="fill:var(--color3,#fff)" d="M3.708 21.341V11.65h1.664v3.66h3.175v-3.66h1.663v9.691H8.547v-4.298H5.372v4.298H3.709zm7.448-3.755c0-.638.12-1.264.287-1.789.186-.541.509-.994.927-1.335l.005-.004c.409-.317.983-.52 1.653-.52.674 0 1.245.216 1.637.55.42.381.732.875.889 1.433l.005.021a7.84 7.84 0 0 1 .272 1.959v.33h-4.118c.074 1.157.551 1.738 1.423 1.738.236 0 .477-.101.639-.221.171-.125.302-.317.372-.543h1.612c-.116.479-.309.9-.568 1.272l.008-.012a2.49 2.49 0 0 1-.886.782l-.014.006c-.34.166-.738.266-1.159.272h-.002c-1.983 0-2.982-1.315-2.982-3.932v-.007zm1.627-.544h2.427c-.026-.474-.172-.873-.381-1.132a1.16 1.16 0 0 0-.372-.307l-.006-.003a.971.971 0 0 0-.445-.107h-.005c-.706 0-1.113.517-1.223 1.548h.005zm4.954 4.299v-7.219h1.518v1.087h.025c.387-.84.989-1.27 1.804-1.27.424 0 .827.12 1.115.284.293.164.58.494.728.829.151.34.256.852.256 1.302v4.987h-1.584v-4.33c0-.443-.084-.822-.184-1.043-.099-.229-.409-.386-.858-.386-.429 0-.765.183-.936.474a2.512 2.512 0 0 0-.293 1.181v4.103l-1.59.001zm6.637 0V11.65h1.585v9.691h-1.585zm5.771-3.755c0-.638.12-1.264.288-1.789.182-.542.505-.997.925-1.335l.006-.004c.429-.342.983-.52 1.648-.52.676 0 1.251.209 1.643.55.398.342.733.878.895 1.454.162.575.267 1.302.267 1.959v.33h-4.112c.068 1.157.549 1.738 1.423 1.738.236 0 .475-.101.639-.221.161-.126.313-.329.366-.543h1.617c-.117.479-.31.9-.568 1.272l.008-.013a2.49 2.49 0 0 1-.892.782l-.014.006a2.719 2.719 0 0 1-1.154.272h-.002c-1.988 0-2.981-1.315-2.981-3.932l-.001-.007zm1.626-.544h2.427c-.026-.474-.183-.886-.381-1.132a1.189 1.189 0 0 0-.372-.305l-.007-.003a.982.982 0 0 0-.448-.109c-.706 0-1.12.518-1.224 1.549h.005zm5.027 4.299V11.65h1.59v9.691h-1.59zm-8.809-6.663H29.7l-2.056 2.801 2.443 3.861h-1.711l-2.443-3.861 2.056-2.801z"/></symbol><symbol id="email-icon-min" viewBox="0 0 22 17"><path d="M22 2.125C22 .956 21.01 0 19.8 0H2.2C.99 0 0 .956 0 2.125v12.75C0 16.044.99 17 2.2 17h17.6c1.21 0 2.2-.956 2.2-2.125V2.125Zm-2.2 0L11 7.427 2.2 2.125h17.6Zm0 12.75H2.2V4.25L11 9.563l8.8-5.313v10.625Z" fill="#A74D4A"/></symbol><symbol id="estimate-icon-min" viewBox="0 0 81 113"><path fill="#fff" d="M79.416 29.428 51.196 1.21C50.392.403 49.585 0 48.376 0H8.062C3.628 0 0 3.628 0 8.063v96.749c0 4.435 3.628 8.063 8.063 8.063h64.5c4.434 0 8.062-3.628 8.062-8.063V32.25c0-1.21-.403-2.016-1.21-2.822ZM48.375 9.675 70.95 32.25H48.375V9.675Zm24.188 95.137h-64.5V8.062h32.25V32.25c0 4.434 3.628 8.063 8.062 8.063h24.188v64.499Z"/><path fill="#fff" d="M16.125 80.625H64.5v8.063H16.125v-8.063Zm0-24.188H64.5V64.5H16.125v-8.063Z"/></symbol><symbol id="experience-icon-min" viewBox="0 0 26 32"><path d="M25.958 14.545c0 8.073-5.538 15.622-12.979 17.455C5.538 30.167 0 22.618 0 14.545V5.818L12.979 0l12.979 5.818v8.727zM12.979 29.091c5.408-1.455 10.095-7.942 10.095-14.225V7.71L12.979 3.172 2.884 7.71v7.156c0 6.284 4.687 12.771 10.095 14.225zm-1.442-10.182h2.884v4.364h4.327V16h2.884l-8.653-7.273L4.326 16H7.21v7.273h4.326v-4.364z"/></symbol><symbol id="expert-icon-min" viewBox="0 0 99 116"><path fill="#fff" d="M74.25 42.737c0 32.54-49.5 32.54-49.5 0h12.375c0 16.3 24.75 16.3 24.75 0M99 97.684V116H0V97.684c0-16.3 32.98-24.42 49.5-24.42 16.52 0 49.5 8.12 49.5 24.42Zm-11.756 0c0-3.907-19.367-12.82-37.744-12.82s-37.744 8.913-37.744 12.82v6.716h75.488M52.594 0c1.732 0 3.093 1.343 3.093 3.053v18.315h6.188V6.105c4.379 2 8.048 5.252 10.53 9.335A23.502 23.502 0 0 1 75.797 29s4.331.855 4.64 7.632H18.563c0-6.777 4.64-7.632 4.64-7.632a23.502 23.502 0 0 1 3.392-13.56 23.963 23.963 0 0 1 10.53-9.335v15.263h6.188V3.053c0-1.71 1.36-3.053 3.093-3.053"/></symbol><symbol id="flag-icon-min" viewBox="0 0 25 32"><path fill="#545454" style="fill:var(--color5,#545454)" d="M1.753 0H21.67c.786 0 1.422.637 1.423 1.422V28.65a.711.711 0 0 1-1.093.6l.003.002-10.292-6.453L1.419 29.25a.71.71 0 0 1-1.089-.601V1.422C.33.637.967 0 1.752 0h.001z"/></symbol><symbol id="knauf-icon-min" viewBox="0 0 96 32"><path fill="#00acec" style="fill:var(--color6,#00acec)" d="M84.015 7.903h12.38l-1.216 3.454h-5.027l-1.164 3.261h4.497l-1.111 3.261h-4.497L83.062 32h-7.353l8.306-24.097zm-2.645 0h-7.512l-4.551 12.684c-.317.857-.582 1.409-.793 1.658-.265.221-.583.331-1.059.331-.423 0-.687-.111-.741-.304-.053-.221.054-.691.318-1.465l4.655-12.905h-7.565l-3.651 10.197c-.687 1.935-1.111 3.206-1.216 3.814-.053.608.105 1.188.583 1.741.422.553 1.269.995 2.485 1.327 1.218.359 2.646.525 4.392.525 1.587 0 2.963-.138 4.233-.442 1.27-.277 2.328-.718 3.228-1.271s1.535-1.105 1.852-1.631c.371-.524.741-1.436 1.216-2.763l4.128-11.495zM50.632 18.985c.317-1.962.793-4.339 1.481-7.213-1.958 3.289-3.281 5.665-3.968 7.213h2.487zm7.67-11.082-2.328 17.243h-6.931l.741-3.122h-2.645l-1.587 3.122H38.04L48.621 7.903h9.681zm-15.659 0h-6.349l-2.751 7.765-1.481-7.765h-6.295l-6.191 17.243h6.349l2.804-7.848 1.111 7.848h6.613l6.19-17.243zm-20.263.138-6.243 7.793 1.534 9.312H10.74l-1.269-6.162-2.222 6.162H0L7.565 0h7.248l-3.704 13.762 4.603-5.72h6.667z"/></symbol><symbol id="legrand-icon-min" viewBox="0 0 150 32"><path style="fill:var(--color1,#000)" d="M0 1.776h6.679v15.163l7.336.024v5.721H0V1.775zm24.304 20.908h-6.706V7.521l-7.338-.049V1.776h14.043v20.909z"/><path style="fill:var(--color1,#000)" d="M7.682 0h1.662v7.496H7.682V0zm7.394 16.891h1.634v7.47h-1.634v-7.47z"/><path fill="#cc2229" style="fill:var(--color2,#cc2229);stroke:var(--color2,#cc2229)" stroke="#cc2229" stroke-miterlimit="2.613" stroke-width="1.423" d="M32.902 1.011h5.675v22.587h-5.675V1.012zm47.662 5.943h5.617v1.652c1.892-1.553 3.038-1.924 5.933-2.071v3.772c-1.863.123-5.933 1.382-5.933 4.315v9h-5.617V6.955zm32.242 1.553-.028-1.554h-5.646v16.669h5.646V13.291c-.086-1.504 4.901-3.92 4.958.345v9.986h5.674v-11.49c-.001-4.907-5.16-6.732-10.605-3.625z"/><path fill="#cc2229" style="fill:var(--color2,#cc2229)" d="M97.559 6.534c-1.118-.073-2.235-.073-3.268-.099v3.797c1.234-.049 2.38-.025 3.268.099 1.26.173 2.064.542 2.093 1.233v1.208a8.695 8.695 0 0 0-2.093-.814 7.798 7.798 0 0 0-1.72-.173c-3.839 0-6.591 2.638-6.591 5.942 0 3.279 2.866 5.893 6.678 5.893.573 0 1.117-.024 1.634-.124a6.94 6.94 0 0 0 2.102-.708l-.038.018.028.813h5.646V11.563c.001-3.921-3.896-4.808-7.737-5.031zm0 13.192c-1.576 0-2.866-1.086-2.866-2.442s1.29-2.466 2.866-2.466c.375 0 .747.064 1.093.188.356.128.663.31.928.539l-.004-.003c.264.229.472.501.613.8.131.269.207.585.207.92v.023-.001.006c0 .338-.079.658-.218.942l.006-.013a2.46 2.46 0 0 1-.611.79l-.003.003a2.89 2.89 0 0 1-.922.529 3.16 3.16 0 0 1-1.075.184h-.014.001zM136.766.962l-.028 7.421a7.688 7.688 0 0 0-3.124-1.135c-.315-.049-.659-.049-1.004-.049-4.499 0-8.167 3.6-8.167 8.013s3.668 8.014 8.167 8.014c.345 0 .689-.024 1.004-.074 1.174-.197 2.263-.665 3.18-1.257l-.028 1.653h5.675V.961h-5.675zm-3.152 17.383c-2.093 0-3.784-1.528-3.784-3.403 0-1.849 1.691-3.378 3.784-3.378s3.811 1.529 3.811 3.378c0 1.875-1.719 3.403-3.811 3.403zm-74.603-1.873a6.64 6.64 0 0 0 .115-1.282c0-4.858-4.27-8.827-9.515-8.852h-.057c-5.244 0-9.544 3.97-9.544 8.852 0 4.857 4.3 8.826 9.544 8.826h.057c4.013-.024 7.451-2.416 8.827-5.671h-5.761c-.631.691-1.375 1.135-2.866 1.159h-.201c-1.432-.074-3.095-1.183-3.353-3.058h3.353l9.4.025zm-12.696-2.983c.373-1.947 1.462-2.811 3.297-2.91h.115c1.892-.099 2.866 1.109 3.181 2.885h-3.295l-3.297.025zm26.768-6.535-.029 1.776a7.187 7.187 0 0 0-3.485-1.524l-.039-.005a6.461 6.461 0 0 0-.989-.074h-.014.001c-4.758 0-8.627 3.6-8.627 8.014 0 4.389 3.869 7.988 8.627 7.988.344 0 .687 0 1.003-.024 1.318-.099 2.464-.444 3.554-1.135.918 2.268-1.175 4.808-3.554 4.66-.946-.05-1.921-.518-2.752-1.578h-7.021c1.232 3.92 5.559 6.066 9.773 6.141 4.671.099 9.199-2.344 9.199-7.644V6.954h-5.646zm-3.553 11.86c-2.121 0-3.869-1.603-3.869-3.55s1.749-3.526 3.869-3.526c2.15 0 3.868 1.578 3.868 3.526s-1.719 3.55-3.868 3.55z"/><path fill="none" stroke="#cc2229" style="stroke:var(--color2,#cc2229)" stroke-miterlimit="2.613" stroke-width="1.423" d="m73.054 8.729.029-1.775h5.646v16.594m0-.001c0 10.085-16.364 9.79-18.972 1.505zm-18.972 1.505 7.021-.001zm7.021-.001c2.981 3.748 7.566.074 6.305-3.082-1.376.863-2.779 1.159-4.556 1.159-4.758 0-8.627-3.6-8.627-7.989 0-4.413 3.869-8.014 8.627-8.014 1.776 0 3.353.641 4.527 1.603m-3.524 3.009c2.15 0 3.868 1.578 3.868 3.526s-1.719 3.55-3.868 3.55c-2.121 0-3.869-1.603-3.869-3.55s1.749-3.525 3.869-3.525z"/><path style="fill:var(--color1,#000)" d="M144.76 2.965c0-1.248 1.092-2.188 2.494-2.188 1.386 0 2.479.941 2.479 2.188 0 1.268-1.093 2.202-2.479 2.202-1.402 0-2.494-.935-2.494-2.202zm2.494 2.642c1.668 0 3.095-1.115 3.095-2.641 0-1.513-1.426-2.628-3.095-2.628-1.685 0-3.111 1.115-3.111 2.627 0 1.526 1.427 2.642 3.111 2.642zm-.648-2.432h.616l.933 1.317h.599l-1.005-1.338c.519-.056.915-.293.915-.836 0-.599-.413-.864-1.248-.864h-1.344v3.038h.533V3.175zm0-.391v-.941h.728c.374 0 .771.07.771.446 0 .467-.405.495-.858.495h-.641z"/></symbol><symbol id="list-item-icon-min" viewBox="0 0 34 32"><path fill="#a74d4a" style="fill:var(--color4,#a74d4a)" d="M31.565 31.115c-.493.491-1.173.795-1.924.795s-1.431-.304-1.924-.795l-6.206-6.186a2.726 2.726 0 0 1 3.848-3.862l6.206 6.185c.495.494.802 1.176.802 1.931s-.306 1.437-.802 1.931zm-25.376 0a2.726 2.726 0 0 1-3.848-3.862l9.182-9.151c.401-.4.649-.952.649-1.563s-.248-1.164-.649-1.563l-.914-.911a.91.91 0 0 0-1.288 0 .91.91 0 0 1-1.288 0l-.043-.042c-.613-.611-1.658-.177-1.658.689v.881a1.287 1.287 0 0 1-2.195.912l-3.742-3.73a1.283 1.283 0 0 1 .905-2.191h.946c.845 0 1.268-1.023.669-1.62a.946.946 0 0 1-.001-1.342l5.854-5.834C9.381 1.177 10.04.734 10.745.459a5.799 5.799 0 0 1 2.16-.413c.735 0 1.455.138 2.161.413 1.234.481 1.215 2.088.278 3.022l-1.381 1.376a1.615 1.615 0 0 0-.001 2.29l.506.504a.906.906 0 0 1 0 1.283.902.902 0 0 0 0 1.284l.924.921c.399.398.95.644 1.558.644s1.159-.246 1.558-.644l1.803-1.797c.473-.472.614-1.173.478-1.827a5.33 5.33 0 0 1-.116-1.099c0-1.802.621-3.322 1.863-4.56C23.777.62 25.301.002 27.109.002c.46 0 .897.046 1.311.137.622.138.772.903.321 1.352l-1.948 1.941a2.337 2.337 0 0 0 3.299 3.31l-.001.001 1.955-1.948c.467-.465 1.263-.332 1.385.315.076.413.114.849.114 1.307 0 1.802-.62 3.321-1.861 4.557-1.242 1.238-2.767 1.857-4.575 1.857-.367 0-.735-.03-1.103-.091-.658-.109-1.37-.009-1.843.461L6.186 31.118z"/></symbol><symbol id="logo-icon-min" viewBox="0 0 32 32"><path fill="#a74d4a" style="fill:var(--color4,#a74d4a)" d="M4.563 25.877 6.246 27.5V12.29H4.563v13.587z"/><path fill="#545454" style="fill:var(--color5,#545454)" d="m5.528 13.145.007 3.314-.016-.016.617-.001-.018.017.123-3.323.011.011-.723-.002zm-.009-.019c.122-.011.245-.023.366-.032l.366-.027.066-.003.002.074c.009.277.009.554.013.833v.415c-.001.139.001.278-.002.417l-.006.415c-.003.139-.003.277-.008.416l-.023.831-.005.154-.154-.002-.769-.007v-.151c.001-.138.006-.277.007-.415l.009-.414c.002-.139.008-.278.012-.416l.014-.416c.014-.276.023-.554.042-.831.007-.138.016-.277.027-.415.009-.138.022-.277.033-.415l.001-.007.008-.002zm.009 3.984.005.379-.013-.014.615-.003-.017.017c-.001-.129.001-.259.002-.387l.015.015-.307-.002c-.1 0-.199-.003-.299-.005zm-.009-.017c.025-.011.051-.021.077-.029s.051-.017.077-.023l.077-.02c.026-.007.051-.011.077-.017l.077-.015.077-.011c.051-.007.103-.015.154-.019l.127-.011.015.154a4.263 4.263 0 0 1 .015.29v.1-.003l-.004.158-.153-.001a4.356 4.356 0 0 1-.164-.005h.009c-.051-.003-.102-.009-.154-.013-.025-.002-.051-.003-.077-.007l-.077-.011a1.67 1.67 0 0 1-.166-.029l.012.002-.105-.023.011-.071c.006-.033.009-.065.017-.097l.019-.097c.006-.032.015-.065.023-.097s.017-.065.027-.097l.002-.006.007-.003zm-.475 8.591v-.031a.595.595 0 0 1 .055-.232l-.002.004a.498.498 0 0 1 .116-.157.47.47 0 0 1 .22-.105h.003a.479.479 0 0 1 .273.037l-.003-.001a.498.498 0 0 1 .218.195l.001.002a.577.577 0 0 1 .073.216c.004.031.002.043.003.073a.499.499 0 0 1-.438.481h-.002c-.024.003-.041.002-.061.003-.024 0-.042-.003-.063-.006a.459.459 0 0 1-.322-.229l-.001-.002a.495.495 0 0 1-.068-.215v-.002l-.002-.03zm.018-.001.001.031c0 .01.002.022.004.036a.366.366 0 0 0 .069.168l-.001-.001c.03.041.074.081.127.11a.445.445 0 0 0 .211.052l.024-.001h-.001c.019-.002.04-.003.054-.007a.384.384 0 0 0 .256-.178l.001-.002a.38.38 0 0 0 .054-.197v-.014.001c-.002-.013-.003-.045-.007-.055-.003-.016-.009-.033-.014-.05a.347.347 0 0 0-.051-.093l.001.001a.39.39 0 0 0-.244-.148h-.002c-.015-.003-.031-.003-.046-.006h-.005v-.001h-.044c-.025.002-.057.003-.085.01a.39.39 0 0 0-.211.119.348.348 0 0 0-.088.192v.002l-.003.03zM20.976 30.146s6.44-8.226 5.257-11.314c-.902-2.527-1.68-3.12-1.68-3.12s-1.992-1.31-2.926-1.341c-.249-.343-1.993-1.248-1.993-1.248h-.932l-2.989.718s-.778.405-1.058 1.871c-2.148.593-3.512 3.953-3.512 3.953s-2.546 2.63-2.702 4.377c-.716.593.591 2.33.591 2.33l2.768.235v3.719s2.246.716 4.906.541c2.165 0 4.269-.722 4.269-.722zM14.966 13.122s-.86-.733-1.72-1.003c-.86-.269-1.679-3.727-1.679-3.727s.697-3.491 2.746-3.546c2.05-.054 3.877.372 3.877.372s1.251.366 1.413 2.287c.162 1.92-1.251 2.729-1.251 2.729l-3.386 2.888z"/><path fill="#fff" style="fill:var(--color3,#fff)" d="M13.343 24.883 9.15 23.724s-1.639 1.767-1.384 4.003c3.226 1.838 7.838-.577 7.838-.577l-2.261-2.266zm2.21.458 2.824-.391 2.431.649s.694.07 1.046.51c.138.168.358.448.576.73l.096.13s.273.337.098.67c-.175.333-.698 1.133-.698 1.133s-.295.278-.592-.025c-.566.318-.743-.18-.743-.18s-.598.202-.781-.329c-.154.229-.658.112-.658.112l-.674-.006s-.282-.305.078-.531c.36-.227.528-.169.528-.169l-.049-.316-.609-.49s-.503.243-1.739-.07c-.323-.081-.759-.158-.759-.158s-.559-.757-.377-1.267z"/><path fill="#545454" style="fill:var(--color5,#545454)" d="m13.38 25.137 2.242 2.314-.017.006a18.894 18.894 0 0 1-1.953.597c-.558.148-1.241.276-1.938.357l-.072.007c-.677.072-1.363.093-2.041.008a5.044 5.044 0 0 1-1.034-.233l.036.011a3.474 3.474 0 0 1-.923-.471l.011.007-.006-.005-.001-.008a2.967 2.967 0 0 1-.006-.489l-.001.009c.012-.16-.007-.217.026-.473.052-.533.14-1.22.355-1.457s.478-.429.76-.578a3.544 3.544 0 0 1 .897-.328h.002l3.662.727zm-.007.017-.433.006c-.145.003-.29.002-.437.003l-1.308.003c-.145.001-.29-.002-.436-.003l-1.043-.634.022-.002a3.107 3.107 0 0 0-.457.147l.021-.008a3.345 3.345 0 0 0-.805.455l.008-.006a2.288 2.288 0 0 0-.331.306c-.199.223-.233.898-.313 1.399-.019.234-.007.29-.017.439a2.695 2.695 0 0 0 .011.463l-.001-.012-.063-.11c.263.187.559.33.869.435.31.106.634.177.963.221a8.768 8.768 0 0 0 2.003.004c.407-.043.748-.093 1.086-.155l-.086.013c.167-.029.333-.061.498-.095a18.188 18.188 0 0 0 2.573-.706l-.129.04-.034.155-.274-.291c-.09-.098-.183-.194-.272-.293l-1.081-1.182c-.18-.195-.355-.394-.534-.592zm7.932 3.576.125-.186.129-.189.152-.214c.053-.071.098-.15.15-.214.098-.117.214-.215.345-.292l.006-.003.014.011s-.006.023-.021.062c-.055.13-.122.241-.204.341l.002-.002c-.054.063-.122.123-.183.188s-.122.13-.181.19l-.16.162-.001.001c-.094.095-.159.157-.159.157l-.014-.011zm-.808-.16s.049-.075.125-.186c.038-.055.081-.12.13-.189.047-.069.1-.142.151-.214.053-.072.098-.15.151-.215.085-.101.181-.187.289-.259l.005-.003c.034-.023.057-.033.057-.033l.013.011s-.006.023-.022.061c-.054.13-.122.241-.204.341l.002-.002c-.054.063-.122.122-.183.189-.061.064-.121.13-.181.189-.055.056-.107.11-.16.162l-.001.001c-.094.095-.159.157-.159.157l-.014-.011z"/><path fill="#fff" style="fill:var(--color3,#fff)" d="M18.089 6.144s1.618 1.207 1.577 1.623c-.042.416.59 5.452-.489 5.909.166.583.662.571.662.571s.343 1.563-1.234 3.185c-.125.832-.285 1.436-.285 1.436l-.895.317-2.779-6.89s-.749-.286-.955-1.077c.456-.873 1.369-3.869 1.369-3.869s1.785-.831 1.909-1.206h1.121zM3.795 23.693c-.318-.265-.158-.799-.158-.799s-.346-.419-.126-.776c-.278-.178-.2-.689-.2-.689s1.705-.823 1.906-.915c.2-.091 1.826.929 1.826.929l2.133 1.754 7.751 2.017s2.074-2.454 3.343-3.443c2.067.533 2.391 3.305 2.391 3.305s-2.453 2.72-4.266 4.063c-.842.474-2.248-.122-2.248-.122s-5.169-1.805-7.791-3.573c0 0-1.99-.044-3.094-1.054 0 0-.262-.019-.355.107-.093.124-.454.629-.454.629s-.646-.266-.825-.571c-.18-.306.167-.861.167-.861z"/><path fill="#545454" style="fill:var(--color5,#545454)" d="M17.91 6.153h-1.117l.009-.006a.397.397 0 0 1-.08.122 1.321 1.321 0 0 1-.102.097l-.002.001a2.98 2.98 0 0 1-.219.165l-.01.006a6.745 6.745 0 0 1-.487.298c-.331.187-.67.36-1.013.523l.006-.007a52.3 52.3 0 0 1-.785 2.473l.156-.518c-.055.162-.111.324-.168.485-.056.162-.115.322-.174.483s-.121.321-.186.48c-.031.079-.066.157-.1.235-.034.079-.074.155-.11.233l.001-.009c.01.031.017.065.031.096.024.071.052.132.085.189l-.003-.005c.017.029.033.059.053.087.074.113.166.213.267.303.102.089.213.166.331.233.117.067.24.126.368.169l.006.002.003.007 2.597 6.882-.021-.01.996-.312-.011.011a13.5 13.5 0 0 0 .086-.36l.04-.182.037-.182.035-.182.033-.183c.023-.121.04-.243.06-.366l.001-.005.003-.003.149-.16c.048-.055.097-.109.142-.166s.093-.112.136-.171c.043-.058.087-.117.128-.177.042-.059.08-.121.12-.183.038-.062.074-.126.11-.189.034-.065.07-.128.101-.194.033-.066.061-.132.09-.199.027-.067.055-.135.079-.205.091-.249.157-.537.186-.837l.001-.014a3.35 3.35 0 0 0 .01-.216v-.049c0-.136-.012-.27-.036-.399l.002.014.013.011a.76.76 0 0 1-.596-.373l-.002-.004a.974.974 0 0 1-.093-.218l-.002-.007-.003-.011.009-.005a.947.947 0 0 0 .35-.371c.084-.152.143-.318.189-.486.087-.339.125-.688.143-1.038s.014-.7 0-1.05a22.058 22.058 0 0 0-.08-1.135l.007.087c-.05-.532-.09-.89-.135-1.248l.021.203-.061-.523a3.57 3.57 0 0 1-.022-.251l-.001-.012-.001-.024a.62.62 0 0 1 .002-.044v.002-.014a.168.168 0 0 0-.007-.05v.001a.504.504 0 0 0-.05-.121l.001.002c-.086-.151-.206-.281-.326-.407s-.249-.245-.379-.361a13.844 13.844 0 0 0-.777-.636l-.034-.025zm.009-.016c.283.205.561.419.829.646.133.114.264.232.389.357.124.126.247.254.342.414.023.04.043.083.057.133.006.026.01.052.007.082v.03l.001.029c.005.084.016.171.027.257l.07.521c.047.348.093.696.13 1.046s.066.7.086 1.051c.017.353.025.706.01 1.061s-.049.711-.137 1.063a2.24 2.24 0 0 1-.201.532l.006-.012a1.098 1.098 0 0 1-.399.429l.059-.146a.965.965 0 0 0 .037.099.697.697 0 0 0 .174.244l.001.001a.63.63 0 0 0 .257.132l.004.001.048.009a.439.439 0 0 0 .041.004h.001l.109.004.021.101c.018.088.026.16.033.239a2.662 2.662 0 0 1-.004.47l.001-.011a3.426 3.426 0 0 1-.13.703l.007-.03c-.022.073-.043.146-.069.217-.023.072-.053.142-.08.213-.03.069-.059.139-.094.207-.032.069-.068.135-.103.203-.037.065-.074.131-.114.195a2.682 2.682 0 0 1-.123.19c-.05.075-.093.135-.138.194l.007-.009c-.044.061-.093.118-.14.177-.046.058-.097.114-.146.171l-.153.166.04-.082c-.02.124-.037.247-.059.371l-.033.185-.034.184-.037.184-.04.183-.041.183a7.079 7.079 0 0 1-.045.185l-.021.081-.081.025-1.135.36-.053-.139c-.109-.286-.219-.572-.326-.86l-.321-.862-1.927-5.169.086.081a1.682 1.682 0 0 1-.215-.088l.01.004a2.26 2.26 0 0 1-.545-.356l.002.002a1.674 1.674 0 0 1-.284-.328l-.004-.006a1.234 1.234 0 0 1-.146-.293l-.002-.009c-.013-.034-.022-.071-.033-.107l-.013-.041.023-.045c.035-.074.074-.147.109-.225.033-.077.07-.153.101-.231.066-.157.129-.315.19-.474.06-.159.121-.319.178-.479.059-.16.115-.321.173-.482.113-.322.223-.646.331-.97l.322-.974.01-.032.029-.013c.343-.156.685-.322 1.018-.503.166-.09.33-.184.487-.287.078-.051.156-.106.227-.164.036-.03.071-.061.102-.093a.35.35 0 0 0 .072-.102l.001-.002.009-.023h.023l1.123.025.003.002z"/><path fill="#545454" style="fill:var(--color5,#545454)" d="M14.095 11.047c.078.187-.218-.39-.218-.39s-.186-.499 0-1.03c.187-.53.747-1.747.778-2.465 1.183-.187 2.21-1.17 2.21-1.17s.827-.016.927 0c.101.015.68.145 1.666 1.632-.651-.867-1.465-.93-1.465-.93s-.101.609-1.082.718c.716-.577.589-.874.589-.874s-.416.969-1.638 1.279c.707-.562.614-1.03.614-1.03s-.653.811-1.525 1.123c.187.577.114 1.197.114 1.197s-.619 1.012-.386 1.73c0 0-.043.43-.043.613s-.541-.404-.541-.404z"/><path fill="#a74d4a" style="fill:var(--color4,#a74d4a)" d="M19.514 5.994c-.514-2.27-2.579-3.825-4.867-3.423s-3.815 2.586-3.414 4.878l.154.882-.363.691s.83.922 3.785.632l1.631.312s.782.352 3.293-.8c1.745-.767 1.511-1.145 1.511-1.145L19.92 7.25c-.001 0-.311-.843-.405-1.257z"/><path fill="#545454" style="fill:var(--color5,#545454)" d="M3.962 23.706s.071-.03.18-.071c.054-.021.117-.046.185-.071l.213-.077c.073-.025.143-.059.213-.079a1.015 1.015 0 0 1 .344-.028h-.004a.462.462 0 0 1 .057.008l.005.017s-.016.014-.045.035a.99.99 0 0 1-.302.143l-.007.002c-.07.018-.149.024-.223.038-.076.014-.151.029-.223.041-.071.013-.139.023-.196.032l-.191.029-.005-.017zm-.217-.803s.076-.034.192-.081c.058-.024.126-.053.199-.081l.229-.089c.078-.029.154-.066.228-.09a1.119 1.119 0 0 1 .431-.041h-.005l.005.017s-.017.015-.049.038a1.172 1.172 0 0 1-.323.159l-.008.002c-.075.022-.158.031-.24.05s-.162.037-.239.051c-.077.017-.149.03-.21.042a5.138 5.138 0 0 1-.206.038l-.005-.017zm-.096-.783.203-.093c.061-.027.133-.06.21-.093.077-.034.159-.067.241-.101.083-.033.162-.077.241-.105.115-.039.248-.063.386-.067H4.949c.017 0 .034.001.05.003h-.002l.006.016s-.018.017-.051.041c-.1.073-.216.135-.339.179l-.01.003c-.08.025-.169.04-.254.063s-.171.047-.254.067a.923.923 0 0 1-.137.036l-.085.017c-.13.031-.217.05-.217.05l-.006-.016zm15.517-8.474s-2.227.771-3.175-.134c1.571 1.233 3.358.488 3.358.488s-.101-.083-.183-.354zm-4.301-4 .045-.015c.029-.01.071-.026.125-.043l.195-.062c.075-.023.161-.05.254-.075.094-.026.194-.057.301-.084.107-.029.218-.061.335-.089.117-.03.237-.063.359-.093s.247-.059.37-.093c.125-.029.249-.059.371-.091.06-.016.121-.03.182-.043l.176-.046.334-.085c.105-.027.206-.056.298-.081.093-.025.177-.051.251-.074s.141-.04.192-.061a3.09 3.09 0 0 1 .125-.042l.045-.015.009.015-.157.085a1.786 1.786 0 0 1-.184.089c-.071.032-.152.069-.243.103s-.189.074-.294.107c-.105.035-.216.074-.331.107l-.177.054-.182.05c-.122.035-.247.067-.372.099s-.251.059-.375.087c-.124.029-.246.054-.365.079-.237.049-.459.092-.649.126-.381.07-.636.109-.636.109l-.003-.017zm-3.414-1.321s.023.015.067.038c.045.021.111.051.199.083l.069.025.078.023c.054.014.11.037.173.048l.201.046.224.036c.077.015.16.02.246.027.085.006.171.023.262.023l.279.01c.094.005.193-.001.291-.001l.149-.002c.05 0 .101 0 .151-.006.102-.008.205-.015.309-.02l.157-.01.157-.017.316-.038c.052-.006.106-.01.158-.017l.157-.024.311-.05c.207-.029.41-.073.606-.11.097-.019.194-.039.289-.055s.186-.041.276-.06c.179-.042.349-.078.507-.111l.115-.025.109-.028.203-.049c.127-.032.239-.057.331-.078.091-.021.165-.035.214-.046l.077-.016.006.017-.282.091-.629.203-.114.032-.503.138c-.089.023-.18.053-.275.073l-.29.065c-.198.042-.4.095-.61.126l-.315.054-.159.026c-.053.008-.107.012-.161.019l-.32.034c-.054.006-.107.013-.161.017l-.159.007-.314.015c-.027.002-.058.002-.09.002l-.069-.001h.003l-.152-.002-.151-.002c-.049 0-.098-.001-.147-.007a24.702 24.702 0 0 1-.496-.039l.142.01-.067-.009-.131-.02c-.086-.014-.17-.023-.248-.044l-.226-.051c-.331-.091-.398-.112-.465-.133l.265.072c-.064-.017-.12-.044-.173-.063-.027-.011-.052-.019-.076-.03l-.067-.032c-.086-.039-.149-.078-.194-.105-.042-.029-.063-.046-.063-.046l.011-.014z"/><path fill="#545454" style="fill:var(--color5,#545454)" d="M13.521 2.958c.149-.065.306-.11.468-.136s.326-.04.49-.035a2.27 2.27 0 0 1 .613.093l.12.035c.078.029.157.056.233.09.152.069.301.146.44.238.07.046.141.09.206.144.065.051.133.101.193.16.059.057.124.111.18.173l.17.183c.104.129.213.255.303.394.098.134.178.278.265.419.042.071.078.145.117.217.038.074.079.145.112.22.065.15.138.298.194.451l.089.229c.031.076.054.154.081.232.026.077.053.154.077.232.026.078.045.157.067.235.043.157.089.313.123.472.019.079.038.158.054.238s.034.158.047.239l.085.479-.075-.083.215.074.107.038c.036.013.071.024.107.039l.213.085c.017.006.034.016.053.025l.051.026c.034.017.069.034.106.055l-.065-.003.486-.183c.082-.03.162-.063.244-.091l.246-.087.007.016-.953.425-.006-.003a1.713 1.713 0 0 0-.092-.043l-.009-.003-.051-.023c-.017-.006-.034-.015-.053-.021l-.21-.077c-.034-.014-.071-.024-.107-.035l-.321-.099-.008-.002-.002-.007-.101-.472a4.555 4.555 0 0 0-.063-.266l.007.032-.059-.234c-.037-.156-.086-.309-.131-.463-.024-.077-.044-.154-.07-.23l-.078-.229c-.028-.075-.051-.153-.082-.226l-.089-.225c-.055-.15-.128-.294-.193-.44-.031-.074-.071-.144-.108-.215s-.073-.143-.113-.213c-.082-.137-.16-.278-.253-.408-.087-.135-.189-.259-.287-.386l-.161-.179c-.053-.06-.113-.113-.17-.169-.055-.058-.12-.106-.181-.158-.059-.054-.126-.097-.191-.144a2.885 2.885 0 0 0-.397-.235l-.017-.008c-.071-.035-.147-.063-.22-.094l-.114-.038a.788.788 0 0 0-.109-.033l-.006-.001-.116-.03-.118-.022a.974.974 0 0 0-.113-.017l-.006-.001c-.04-.004-.079-.011-.119-.013a2.473 2.473 0 0 0-.491.008l.012-.001a2.126 2.126 0 0 0-.481.106l.015-.004-.006-.017z"/><path fill="#545454" style="fill:var(--color5,#545454)" d="m14.168 2.694.041-.028a1.338 1.338 0 0 1 .316-.146l.011-.003a1.794 1.794 0 0 1 .623-.085c.122.005.253.017.383.051.131.03.265.073.393.133a2.408 2.408 0 0 1 .372.21c.116.082.226.173.327.267s.191.198.274.299c.043.049.08.101.117.153s.073.101.103.151c.032.051.065.099.093.147l.077.143c.051.089.088.177.122.253.036.076.061.144.082.201.021.055.035.101.046.131l.015.046-.015.008-.088-.163a2.864 2.864 0 0 0-.113-.197l.007.013c-.042-.07-.087-.151-.145-.234l-.086-.131-.1-.135a1.981 1.981 0 0 0-.112-.143l.002.003c-.039-.046-.077-.096-.12-.142s-.085-.095-.131-.14c-.046-.045-.091-.092-.141-.135a2.954 2.954 0 0 0-.469-.348l-.014-.008c-.057-.035-.117-.065-.175-.094a2.113 2.113 0 0 0-1.045-.211h.005c-.174.01-.336.041-.491.09l.014-.004c-.112.035-.171.066-.171.066l-.008-.016z"/><path fill="#545454" style="fill:var(--color5,#545454)" d="m19.909 7.263-.025-.078c-.016-.05-.043-.123-.076-.216a8.976 8.976 0 0 0-.153-.408l.027.077a10.048 10.048 0 0 0-.211-.493l.03.072a5.223 5.223 0 0 0-.127-.267l.014.031c-.039-.081-.081-.163-.125-.249-.09-.169-.189-.343-.297-.52-.106-.179-.233-.351-.358-.528a6.048 6.048 0 0 0-.42-.503 4.996 4.996 0 0 0-.461-.449l-.007-.006c-.04-.037-.084-.067-.125-.101l-.124-.101c-.086-.061-.169-.123-.255-.18-.087-.054-.171-.109-.257-.159-.087-.047-.17-.097-.254-.139-.086-.04-.169-.078-.249-.118l-.239-.098c-.075-.034-.153-.053-.225-.079-.073-.023-.139-.051-.206-.066l-.184-.05c-.057-.015-.109-.032-.157-.04-.096-.02-.171-.038-.223-.05l-.08-.017.002-.018.309.037c.049.005.103.016.161.027l.189.037c.069.011.138.034.213.053.074.021.154.037.234.067l.249.086.262.11c.088.04.176.087.267.133.091.047.178.103.27.156.09.057.178.119.269.18.087.067.175.132.261.203.169.144.337.297.489.465a6.006 6.006 0 0 1 .782 1.072c.174.293.341.637.482.995l.017.05c.081.199.168.458.242.723l.013.056c.05.192.071.303.071.303l-.017.003zM18.491 29.206a1.558 1.558 0 0 1-.656.193 2.865 2.865 0 0 1-.705-.032l.017.002a4.513 4.513 0 0 1-.866-.222l.032.01-.082-.031c-.023-.009-.053-.018-.078-.029l-.323-.113c-.43-.154-.857-.313-1.283-.476a36.44 36.44 0 0 1-1.611-.635l.34.128a42.857 42.857 0 0 1-2.79-1.239l.287.126c-.411-.199-.82-.406-1.223-.624a15.345 15.345 0 0 1-.598-.341c-.099-.058-.196-.121-.294-.181-.097-.061-.193-.125-.29-.189l.07.024a6.246 6.246 0 0 1-.473-.045l.033.004a7.972 7.972 0 0 1-1.341-.284l.052.014c-.07-.022-.14-.043-.21-.069a3.511 3.511 0 0 1-.244-.09l.037.013a4.059 4.059 0 0 1-.206-.085c-.068-.029-.135-.063-.202-.094-.066-.035-.133-.069-.197-.107-.065-.036-.128-.077-.191-.118-.062-.043-.125-.085-.184-.131-.061-.046-.118-.097-.175-.146l.13.036a1.2 1.2 0 0 0-.126.038l.008-.003a.528.528 0 0 0-.107.05l.003-.001a.276.276 0 0 0-.046.037l-.003.003.003-.005v.001l-.003.003-.01.015-.03.05-.032.06a9.078 9.078 0 0 0-.238.518l-.065.149-.145-.074a2.348 2.348 0 0 1-.218-.125l.01.006a2.481 2.481 0 0 1-.297-.212l.004.003a1.403 1.403 0 0 1-.18-.175l-.042-.052c-.014-.018-.026-.038-.039-.057l-.01-.015-.001-.002-.004-.007-.002-.003-.003-.006-.007-.013-.007-.015-.017-.04-.013-.035a.84.84 0 0 1-.03-.135v-.004a1.1 1.1 0 0 1 .001-.263c.015-.134.042-.256.082-.373l-.004.012c.013-.04.025-.075.042-.119l.046.182a.691.691 0 0 1-.17-.217l-.002-.004a.82.82 0 0 1-.074-.249v-.004a1.215 1.215 0 0 1-.003-.252v.005c.006-.068.016-.13.029-.19l-.002.01c.005-.021.009-.038.017-.063l.029.144a1.097 1.097 0 0 1-.068-.097l-.003-.005a1.336 1.336 0 0 1-.058-.105.987.987 0 0 1-.081-.224L3.4 22.61a.716.716 0 0 1-.014-.265v.004a.643.643 0 0 1 .093-.259l-.002.003.047.21a.546.546 0 0 1-.175-.189l-.001-.003a.776.776 0 0 1-.079-.215l-.001-.005a1.114 1.114 0 0 1-.022-.324v.004l.004-.053.006-.057.011-.078 2.004-.951.006-.002.014-.003a.192.192 0 0 1 .029-.005h.034a.437.437 0 0 1 .097.016l-.003-.001c.053.013.097.029.141.046.087.035.168.073.249.113.161.078.315.163.469.249.306.173.606.353.903.539l.007.005.007.006.531.44.53.443 1.057.887-.045-.023 1.934.522c.643.175 1.289.346 1.931.526l2.896.802.963.272-.004.017-7.758-2.016-2.131-1.752a21.816 21.816 0 0 0-.898-.531 6.958 6.958 0 0 0-.406-.218l-.055-.025a2.57 2.57 0 0 0-.216-.098l-.021-.008a1.251 1.251 0 0 0-.114-.039l-.008-.002a.358.358 0 0 0-.06-.01h-.015c-.004.001-.007 0-.013.003-.007.001-.019.008-.029.011l-1.882.906.009-.012c-.015.122-.014.249.011.369.013.061.033.12.062.173s.07.097.119.13l.001.001.014.009-.009.014a.48.48 0 0 0-.066.186v.002a.619.619 0 0 0 .012.206l-.001-.004a.911.911 0 0 0 .179.366l.006.007-.002.009a1.096 1.096 0 0 0-.032.424v-.005a.68.68 0 0 0 .058.199.503.503 0 0 0 .125.162l.001.001.01.008-.005.011a1.756 1.756 0 0 0-.109.424l-.001.009a.861.861 0 0 0-.001.226v-.004a.633.633 0 0 0 .044.162l-.002-.004c.008.017.016.034.026.048l.031.046.034.043c.025.028.049.055.077.081a2.079 2.079 0 0 0 .171.145c.119.089.247.168.379.238l-.023.008c.077-.177.157-.354.246-.527.022-.043.046-.087.073-.128a.302.302 0 0 1 .048-.058.425.425 0 0 1 .059-.043l.002-.001a.733.733 0 0 1 .129-.061l.006-.002c.046-.017.093-.03.141-.041l.008-.002.006.006c.054.046.107.094.165.137.056.046.115.085.174.126.061.038.12.078.183.113.062.037.126.07.189.103.065.031.129.064.194.093.066.03.132.056.198.083.067.025.134.051.202.074a7.272 7.272 0 0 0 1.04.27c.282.051.567.089.853.107h.005l.003.002c.096.062.19.126.286.187.097.06.193.122.291.179.194.118.391.231.59.343.398.221.803.431 1.211.633.529.278 1.346.658 2.176 1.016l.31.119c.838.355 1.683.695 2.536 1.017l.32.119c.054.019.107.041.16.061.233.09.508.168.793.219l.028.004c.224.038.451.057.678.041a1.52 1.52 0 0 0 .65-.176l.009.017zM21.989 25.843l-.436.469-.45.477c-.165.174-.341.36-.518.544l-.262.278a9.472 9.472 0 0 1-.506.506l-.119.108a7.746 7.746 0 0 0-.127.11l.014-.012c-.293.252-.503.4-.503.4l-.011-.014s.158-.207.417-.488l.21-.226c.163-.176.329-.339.502-.496l.007-.006.279-.26c.373-.351.742-.705 1.023-.966l.469-.436.012.012z"/><path fill="none" stroke="#a74d4a" style="stroke:var(--color4,#a74d4a)" stroke-width="1.714" d="M31.143 16c0 8.363-6.78 15.143-15.143 15.143S.857 24.363.857 16 7.637.857 16 .857 31.143 7.637 31.143 16z"/></symbol><symbol id="phone-icon-min" viewBox="0 0 32 32"><path fill="#a74d4a" style="fill:var(--color4,#a74d4a)" d="M1.867 32c-.533 0-.978-.178-1.333-.533a1.804 1.804 0 0 1-.533-1.336v.003-7.2c0-.414.133-.777.401-1.09a1.78 1.78 0 0 1 1.021-.599L7.556 20a2.891 2.891 0 0 1 1.268.111c.43.134.777.335 1.044.6l4.178 4.177a32.734 32.734 0 0 0 6.177-4.844 29.643 29.643 0 0 0 4.591-5.864l.075-.135-4.267-4.357a1.827 1.827 0 0 1-.51-.899l-.002-.012a3.146 3.146 0 0 1-.018-1.151l-.003.019 1.157-6.223c.059-.414.251-.756.578-1.021A1.7 1.7 0 0 1 22.923 0h7.212c.533 0 .978.178 1.333.533s.533.8.533 1.333c0 3.822-.853 7.549-2.557 11.179-1.763 3.729-4.028 6.919-6.755 9.646a33.995 33.995 0 0 1-9.44 6.666l-.205.088C9.417 31.15 5.692 32.003 1.87 32z"/></symbol><symbol id="price-icon-min" viewBox="0 0 32 32"><path d="M2.875 25.786V14.76c-.585.226-1.131.23-1.585.075a1.887 1.887 0 0 1-.871-.61l-.003-.004a1.947 1.947 0 0 1-.402-.99c-.065-.578.108-1.233.599-1.846a.69.69 0 0 1 .085-.086L14.943.138a.523.523 0 0 1 .676-.027L15.618.11l14.277 11.142a.371.371 0 0 1 .062.057c.661.714.827 1.506.667 2.175a2.036 2.036 0 0 1-.456.874l.002-.002a1.972 1.972 0 0 1-.795.544l-.014.004c-.499.181-1.094.176-1.695-.11v2.572a7.484 7.484 0 0 0-1.284-.696l-.05-.019-.063-.026v-2.447c0-.253-9.794-8.024-10.876-8.868-1.146.874-11.119 8.582-11.119 8.908v11.573l-1.398-.005zM23.48 21.54v-.575h.965v.561c.455.022.861.09 1.307.186v1.031c-.2-.017-.471-.032-.744-.043l-.038-.001c-.233-.01-.509-.016-.787-.017h-.002c-.141 0-.267.009-.377.027-.506.082-.513.75.144.75h.498c.352 0 .646.059.879.178s.41.279.528.482c.118.204.177.434.177.693v.221c0 .424-.083.748-.249.971s-.403.374-.71.452a3.043 3.043 0 0 1-.627.105v.625h-.965v-.622a6.932 6.932 0 0 1-1.314-.184v-1.031c.571.044 1.156.06 1.729.06.166 0 .304-.011.415-.033.512-.103.429-.683-.06-.683h-.4c-.584 0-1.027-.114-1.329-.342s-.453-.61-.453-1.145v-.221c0-.491.167-.859.499-1.102.248-.181.503-.295.914-.342zm.428-3.447a6.07 6.07 0 0 1 4.301 1.788 6.09 6.09 0 0 1 1.782 4.312v.006a6.14 6.14 0 0 1-.887 3.176l.015-.027 2.356 2.577a.294.294 0 0 1-.017.413l-1.729 1.585a.288.288 0 0 1-.41-.018l-2.253-2.487c-.402.25-.865.462-1.354.615l-.043.012a5.882 5.882 0 0 1-1.754.261h-.007a6.048 6.048 0 0 1-4.301-1.788l-.013-.014a6.122 6.122 0 0 1-1.292-1.928l-.015-.04a6.01 6.01 0 0 1-.462-2.33v-.004a6.12 6.12 0 0 1 1.783-4.318 6.098 6.098 0 0 1 1.935-1.31l.04-.015a5.948 5.948 0 0 1 2.322-.463h.004zm3.433 2.66a4.883 4.883 0 0 0-1.545-1.045l-.032-.012-.015-.007a4.75 4.75 0 0 0-1.835-.362h-.006a4.815 4.815 0 0 0-3.433 1.426 4.9 4.9 0 0 0-1.042 1.551l-.012.032-.007.014a4.795 4.795 0 0 0-.36 1.841v.008c0 .662.131 1.291.367 1.864a4.883 4.883 0 0 0 2.597 2.627l.032.012a4.757 4.757 0 0 0 1.852.368h.007c.658 0 1.286-.131 1.856-.368a4.91 4.91 0 0 0 2.619-2.607l.012-.032a4.8 4.8 0 0 0 .367-1.857v-.008c0-.661-.131-1.291-.366-1.863a4.923 4.923 0 0 0-1.054-1.584zm-11.527-6.797v4.508h2.009a7.859 7.859 0 0 0-.741.925l-.017.027h-1.251v3.103a7.484 7.484 0 0 0-.088 1.758H9.888v-5.828c0-1.506.614-2.874 1.6-3.864.988-.99 2.352-1.607 3.852-1.607s2.863.617 3.849 1.607a5.493 5.493 0 0 1 1.283 2.022l.012.038-.025.01c-.334.14-.608.277-.872.429l.038-.02a4.561 4.561 0 0 0-1.105-1.805 4.481 4.481 0 0 0-2.706-1.303zm-.949 9.372v-3.912h-4.029v3.914l4.029-.003zm0-4.864v-4.508a4.498 4.498 0 0 0-2.707 1.303 4.516 4.516 0 0 0-1.323 3.192v.013h4.03zm-5.979 6.851h6.979c.078.376.168.695.278 1.005l-.016-.053h-7.24v-.952zM27.695 1.287v5.589l-4.287-2.839v-2.75h4.287z"/></symbol><symbol id="quality-icon-min" viewBox="0 0 32 32"><path d="m6.488 16.12.107.02.027.005c.232.048.457.116.645.191V9.818a.328.328 0 0 0-.013-.094l8.562-6.058 8.374 6.056a.314.314 0 0 0-.007.07v6.037l.574.433c.067-.015.136-.028.205-.041v-6.002c1.635.718 3.054-1.061 1.708-2.408a.43.43 0 0 0-.046-.039L15.984.077a.417.417 0 0 0-.503.019L4.864 7.808a.378.378 0 0 0-.063.057H4.8c-1.131 1.308.014 2.93 1.686 2.332v5.924zM4.05 25.081c-.377 0-.682.284-.682.634s.306.635.682.635c.377 0 .682-.284.682-.635s-.305-.634-.682-.634zm19.858-5.539v-.019c0-.114.009-.226.025-.335l-.002.012-1.342-.833a22.527 22.527 0 0 1-.737-.471l.121.076c-1.673-1.091-3.257-1.769-5.325-1.271-1.206.29-1.495.806-2.267 1.661a.394.394 0 0 1-.113.124l-2.485 2.75c.127.604.698.864 1.32.816.842-.065 1.671-.822 2.289-1.348.318-.271.637-.541.972-.727.774-.429 1.544-.444 2.306.746l3.907 6.555h1.328l.001-7.736zm.314-1.048a1.4 1.4 0 0 1 .207-.215c.342-.285.83-.424 1.456-.425v-.002l3.396.001c1.352-.005 2.437.473 2.254 1.906l-.751 7.218c-.097 1.149-.648 2.081-2.027 2.027l-3.054.001c-.428.021-.79-.087-1.094-.313a1.933 1.933 0 0 1-.554-.672h-1.056c.142.387.135.754.022 1.08a1.77 1.77 0 0 1-.635.836c-.279.206-.615.35-.98.407l-.013.002a2.098 2.098 0 0 1-1.07-.109c-.401.39-.822.635-1.263.748a2.36 2.36 0 0 1-1.342-.058c-.43.443-.905.721-1.428.826-.533.107-1.1.033-1.7-.23a2.537 2.537 0 0 1-.57.316l-.017.006a2.302 2.302 0 0 1-.838.155l-.078-.001h.004c-.761-.021-1.274-.23-1.682-.57-.39-.324-.651-.739-.945-1.217L8.78 27.48H7.475c-.199.928-.808 1.508-1.903 1.487l-2.848.001c-1.514.229-1.962-1.14-2.089-2.26l-.004-.031-.588-6.782c-.198-1.241.305-2.086 1.722-2.147l.049-.002 3.606.001c.881-.009 1.776.217 2.053 1.083h2.453c.617-.387 1.194-.691 1.833-.876.626-.182 1.299-.246 2.102-.157.858-.949 1.244-1.486 2.592-1.81 2.341-.563 4.09.151 5.976 1.38.197.128.392.256.603.387l1.193.739zm-17.465.81a.357.357 0 0 1-.016-.106l.001-.029v.001c-.114-.624-.742-.694-1.32-.688h-.005v.001H1.796c-.941.041-1.099.512-.969 1.313l.004.034.59 6.8c.074.647.242 1.768 1.204 1.606a.434.434 0 0 1 .071-.006l2.895.001c.952.015 1.143-.67 1.167-1.431l-.001-7.497zm.794 7.439h1.458a.4.4 0 0 1 .353.201l1.789 2.902c.262.425.494.793.785 1.036.273.227.629.367 1.176.383l.046.001c.195 0 .382-.037.554-.104l-.01.004c.129-.051.24-.111.344-.182l-.006.004-1.166-2.029c-.244-.427.454-.773.698-.347l1.267 2.206c.472.223.899.292 1.284.215.352-.07.683-.267.995-.584l-1.826-2.666c-.279-.407.388-.802.667-.395l1.925 2.811c.337.127.661.157.97.077.295-.076.589-.251.884-.535l-1.743-3.053c-.245-.429.456-.775.701-.347l1.803 3.158c.234.127.506.16.767.12.239-.037.451-.129.632-.261l-.004.003c.173-.128.308-.294.374-.483.072-.208.065-.453-.059-.719a.334.334 0 0 1-.033-.147l.001-.025v.001a.412.412 0 0 1-.143-.097.353.353 0 0 1-.082-.143l-.001-.003-3.959-6.643c-.44-.684-.836-.702-1.22-.49-.272.151-.558.394-.844.638-.786.668-1.658 1.456-2.758 1.541-1.13.087-2.099-.543-2.196-1.633l-.001-.03c0-.103.045-.197.116-.261l2.139-2.368a4.154 4.154 0 0 0-1.235.162c-.576.167-1.114.458-1.702.831a.418.418 0 0 1-.246.08H7.552v7.174zm19.845-1.662c-.377 0-.683.284-.683.634s.306.635.683.635c.377 0 .682-.284.682-.635s-.305-.634-.682-.634zM13.649 7.283h4.256c.15 0 .272.111.272.248v2.798c0 .137-.122.248-.272.248h-4.256c-.15 0-.272-.111-.272-.248V7.531c0-.137.122-.248.272-.248zm4.087 1.799h-1.787v1.094h1.787V9.082zm-2.217 0h-1.701v1.094h1.701V9.082zm-1.701-.305h1.701V7.682h-1.701v1.095zm2.131 0h1.787V7.682h-1.787v1.095zm-2.693 3.5h4.664a.37.37 0 0 1 .379.363v1.448a7.68 7.68 0 0 0-.779.011l.023-.001v-1.096h-3.908v1.403l-.757.245v-2.011c0-.2.169-.363.379-.363z"/></symbol><symbol id="rehau-icon-min" viewBox="0 0 140 32"><path fill="#5a5e5e" style="fill:var(--color7,#5a5e5e)" d="M106.218 11.051c0-2.208 1.135-2.775 2.912-2.368v6.414h-2.912v-4.046zm-8.032-2.96V31.18c0 .228.07.296.301.296h7.731V19.833h2.912v11.643h8.033V3.65H101.7c-1.329 0-2.087.555-2.634 1.359-.516.759-.881 1.865-.881 3.082zm-51.31 6.906V8.485c1.574 0 2.145-.247 2.533 1.26.512 1.982.536 5.955-2.533 5.253zm-8.033 16.184c0 .228.07.296.301.296h7.732V19.834c1.13 0 2.912-.663 2.912 2.171v9.275h8.132V20.032c0-1.389-.706-2.649-2.108-2.763.386-.264 1.908-.85 1.908-2.368V8.486c0-1.251-.7-2.672-1.329-3.332-.781-.82-1.718-1.503-3.291-1.503H38.842v27.53zm37.553.296h8.033V19.834h2.912v11.643h7.731c.231 0 .301-.068.301-.296V3.651H87.34v11.446h-2.912V3.651h-8.033v27.826zm58.439-22.201c-.989 0-2.108-.934-2.108-1.776 0-.869-.094-1.273.673-2.003 1.275-1.213 3.745-.418 3.745 1.608 0 1.243-1.026 2.171-2.31 2.171zm-14.861 16.379c0 2.125.619 4.245 2.581 5.16 2.457 1.145 11.359 1.185 13.855.039 1.74-.799 2.541-2.635 2.541-5.1V3.651h-8.033v21.116c0 1.802-.607 2.171-1.707 2.171-.892 0-1.205-1.255-1.205-2.171V3.651h-8.033v22.004zm-59.342 5.821 13.254-.099v-4.736h-5.221v-6.809h5.221v-4.736h-5.221v-6.71h5.221V3.65H60.632v27.825z"/><path fill="#5a5e5e" style="fill:var(--color7,#5a5e5e)" d="M135.237 7.203c.201.373.507.679.603 1.085-.633-.052-.474-.566-.858-.933-.242-.229-.042-.152-.548-.152v1.085h-.402V5.821c.731 0 1.908-.169 1.908.691 0 .489-.235.652-.703.691zm-2.209-.296c0 1.302.757 2.162 1.895 2.137 2.519-.054 2.526-3.913-.088-3.913-.906 0-1.807.857-1.807 1.776z"/><path fill="#5a5e5e" style="fill:var(--color7,#5a5e5e)" d="M134.434 7.006h.502c.873 0 .812-.888.301-.888h-.803v.888z"/><path fill="#e9128b" style="fill:var(--color8,#e9128b)" d="M7.816 26.938c.099.363.044.201.295.401l1.371 1.02c.35.227.608.427.978.619 3.922 2.036 8.238 2.63 12.386.593 1.196-.587 3.079-1.78 3.934-2.844.137-.17.233-.247.393-.404 1.782-1.747 2.935-5.069 2.935-7.772-.791.521-2.136 1.667-3.273 2.408l-3.536 2.15c-.8.476-1.763.886-2.633 1.261-3.218 1.387-5.581 1.932-9.104 2.401-1.168.156-2.337.167-3.746.167z"/><path fill="#a4cc3a" style="fill:var(--color9,#a4cc3a)" d="M.687 14.899c0 2.795.403 5.069 1.866 7.244.315.468 1.31 1.799 1.723 2.155.492.423 1.82 1.534 2.336 1.652-.416-1.752-.502-5.218-.502-7.203 0-4.121.848-7.314 2.071-10.693a15.92 15.92 0 0 1 .773-1.806c.399-.777.308-.769.867-1.714.317-.536.613-1.125.908-1.673-1.341.307-2.67.995-3.822 1.671-.315.185-.52.341-.838.558L4.531 6.342c-.291.241-.367.453-.655.738C2.388 8.55.688 11.985.688 14.899z"/><path fill="#bcbebe" style="fill:var(--color10,#bcbebe)" d="M12.636 1.48v.197c.606.05 2.324.863 2.97 1.127.893.365 1.964.919 2.821 1.372 2.515 1.331 5.18 3.2 7.187 5.173 1.717 1.687 1.456 1.403 3.01 3.258.338.403.581.776.896 1.192l1.692 2.482c.177-.364.402-2.523.402-3.157 0-3.218-1.294-6.874-3.539-9.054-.275-.267-.473-.477-.752-.741l-.871-.723C24.681 1.294 21.822.001 19.463.001c-2.091 0-3.774.053-5.659.952-.393.188-.755.433-1.169.528z"/></symbol><symbol id="reliability-icon-min" viewBox="0 0 32 32"><path d="M10.414 15.657v-4.178c-.432.176-.836.179-1.172.058a1.393 1.393 0 0 1-.643-.474l-.003-.004a1.549 1.549 0 0 1-.297-.77c-.048-.45.079-.959.443-1.436a.358.358 0 0 1 .063-.066L19.333.106a.371.371 0 0 1 .499-.021l10.552 8.664a.244.244 0 0 1 .046.045c.489.555.611 1.171.493 1.692-.06.262-.177.49-.338.68l.002-.002a1.445 1.445 0 0 1-.588.423l-.01.003c-.369.14-.808.136-1.253-.086v6.179c-.383.04-.734.118-1.068.231l.034-.01v-6.879c0-.197-7.238-6.24-8.037-6.897-.847.68-8.218 6.675-8.218 6.928v4.713a3.049 3.049 0 0 0-.226-.055l-.061-.011a1.617 1.617 0 0 0-.324-.038h-.002l-.42-.01zM0 16.323h4.931L4.65 29.131H0V16.322zm6.036 11.774.234-10.632 4.527.112c1.911.411 3.806 1.557 5.698 2.881l3.516.086c1.589.141 2.385 1.865.815 2.946-1.255.924-2.88.83-4.544.631-1.148-.088-1.235 1.543-.035 1.579.415.044.871-.048 1.267-.038 2.081.049 3.805-.329 4.892-2.04l.556-1.287 5.291-2.61c2.638-.846 4.434 2.092 2.461 4.055-3.853 2.818-7.791 5.119-11.808 6.956-2.927 1.783-5.812 1.649-8.659-.213l-4.213-2.426zm13.941-17.739v3.505h2.978v-.01c0-.967-.375-1.845-.978-2.482a3.245 3.245 0 0 0-2-1.013zm0 4.247v3.044h2.978v-3.044h-2.978zm-.701 3.042v-3.043h-2.978v3.044l2.978-.001zm0-3.783v-3.506a3.263 3.263 0 0 0-2 1.013 3.606 3.606 0 0 0-.978 2.482v.01h2.978zm.35-4.266c1.109 0 2.116.48 2.845 1.249a4.363 4.363 0 0 1 1.183 3.005v4.533h-7.701a.747.747 0 0 1-.201-.088l.003.002a1.122 1.122 0 0 1-.16-.122l.001.001v-4.326c0-1.171.454-2.236 1.183-3.005.73-.77 1.738-1.249 2.847-1.249zm9.132-8.597v4.347L25.59 3.14V1.001h3.168z"/></symbol><symbol id="request-icon-min" viewBox="0 0 69 116"><path fill="#fff" d="M55.73 0H13.27C9.75 0 6.374 1.389 3.885 3.86A13.138 13.138 0 0 0 0 13.183v89.636c0 3.496 1.398 6.849 3.886 9.321A13.314 13.314 0 0 0 13.27 116h42.462c3.519 0 6.894-1.389 9.383-3.861A13.138 13.138 0 0 0 69 102.818V13.182c0-3.496-1.398-6.85-3.886-9.321A13.314 13.314 0 0 0 55.73 0ZM34.5 110.727c-4.405 0-7.962-3.532-7.962-7.909 0-4.376 3.557-7.909 7.962-7.909 4.405 0 7.962 3.533 7.962 7.909 0 4.377-3.557 7.909-7.962 7.909Zm23.885-21.09h-47.77V15.817h47.77v73.818Z"/></symbol><symbol id="snaider-icon-min" viewBox="0 0 82 32"><path fill="#009e4d" style="fill:var(--color11,#009e4d)" d="M9.277 4.651C7.412 3.553 6.3 3.127 5.196 3.127c-1.159 0-1.901.55-1.901 1.401 0 2.567 6.565 1.844 6.565 7.781 0 3.274-2.071 5.176-4.948 5.176-2.257 0-3.369-.775-4.649-1.651v-3.673c1.847 1.623 2.977 2.195 4.402 2.195 1.234 0 1.901-.572 1.901-1.572C6.566 9.99.001 11.013.001 4.9c0-2.948 1.92-4.9 4.912-4.9 1.444 0 2.746.402 4.365 1.326v3.325zm9.192 12.053c-1.095.527-2.02.777-2.943.777-3.058 0-5.034-2.362-5.034-5.955 0-3.528 2.053-6.02 4.92-6.02.886 0 2.019.301 2.924.748v2.7c-.717-.505-1.547-.782-2.226-.782-1.641 0-2.697 1.308-2.697 3.326 0 2.047 1.037 3.394 2.602 3.394.66 0 1.246-.2 2.455-.8l-.001 2.61zm23.84-6.501c.112-1.603.814-2.529 1.889-2.529 1.057 0 1.773.952 1.886 2.529h-3.775zm1.7-4.692c-2.683 0-4.593 2.513-4.593 6.049 0 3.563 1.986 5.922 5.047 5.922.678 0 2.318 0 3.881-1.533v-2.254c-1.28 1.209-2.126 1.625-3.219 1.625-1.724 0-2.779-1.183-2.875-3.203h6.247c.13-4.216-1.957-6.604-4.489-6.604zm5.546 11.76h2.732V5.723h-2.732v11.548zm10.333-3.156c-.569.679-1.042.951-1.625.951-1.287 0-2.101-1.404-2.101-3.508 0-2.306.814-3.635 2.191-3.635.493 0 1.136.301 1.534.678v5.513zm0-13.902v6.016c-.738-.473-1.474-.723-2.269-.723-2.492 0-4.216 2.443-4.216 5.977 0 3.458 1.724 6.001 4.062 6.001.927 0 1.644-.322 2.423-1.147v.93h2.731V.213h-2.731zm6.775 9.99c.114-1.603.812-2.53 1.885-2.53 1.058 0 1.782.953 1.895 2.529h-3.78zm1.698-4.692c-2.683 0-4.589 2.513-4.589 6.049 0 3.563 1.987 5.922 5.044 5.922.677 0 2.321 0 3.887-1.533v-2.254c-1.281 1.209-2.13 1.625-3.227 1.625-1.716 0-2.775-1.183-2.87-3.203h6.245c.13-4.216-1.959-6.604-4.489-6.604zm8.579 3.518h.04c.811-2.404 1.719-3.531 2.772-3.531.546 0 1.017.276 1.809 1.053l-.752 3.202c-.717-.6-1.189-.851-1.622-.851-1.002 0-1.643 1.253-2.248 3.371v4.982h-2.735V5.71h2.735v3.319zM52.414.865c.257.897-.205 2.149-1.028 2.793-.826.643-1.7.439-1.954-.458-.26-.899.2-2.151 1.025-2.792.824-.647 1.698-.442 1.956.457zM28.308 9.921c0-3.129-1.604-4.41-3.187-4.41-1.076 0-1.961.602-2.752 1.93h-.038V.214h-2.734v17.025h2.735V9.922c.64-1.227 1.186-1.752 1.826-1.752.851 0 1.416.802 1.416 2.527v4.057c.917-.625 1.849-1.009 2.734-1.151V9.922zm6.858-4.415c-1.113 0-1.964.549-2.834 1.869V5.722h-2.733v7.848c.946.125 2.154.701 2.733 1.653V9.83c.719-1.43 1.229-1.906 1.908-1.906.775 0 1.363.678 1.363 2.306v7.011h2.734V9.93c0-3.401-1.812-4.423-3.171-4.423zm4.681 15.051H36.67v2.993h3.064v1.284H36.67v3.088h3.271v1.283h-4.336v-9.929h4.242v1.282zm2.594 8.654h.973v-9.938h-.973v9.938zm5.79-5.566c.69 0 1.117.631 1.149 1.621h-2.478c.134-1.034.583-1.621 1.328-1.621zm-1.346 2.482h3.466c0-2.424-.834-3.593-2.142-3.593-1.356 0-2.299 1.33-2.299 3.313 0 1.813.851 3.486 2.383 3.486.835 0 1.375-.246 1.973-.772v-1.256c-.578.501-1.138.791-1.727.791-.942 0-1.502-.67-1.654-1.969zm9.819-1.749c-.559-.509-.933-.658-1.359-.658-.891 0-1.508.906-1.508 2.233 0 1.352.656 2.166 1.671 2.166.417 0 .814-.144 1.305-.434v1.272c-.328.205-.953.376-1.468.376-1.474 0-2.496-1.344-2.496-3.264 0-2.167.934-3.536 2.43-3.536.571 0 .955.176 1.426.451l-.001 1.393zm4.434-1.719h1.561v1.163h-1.561v3.36c0 .769.42.992.704.992.352 0 .715-.163 1.109-.486v1.21c-.342.25-.866.435-1.187.435-1.059 0-1.595-.872-1.595-2.054v-3.458h-.859v-.144l1.828-2.372v1.354zm5.282 0v1.515h.02c.496-1.159.968-1.641 1.427-1.641.397 0 .767.246 1.175.758l-.516 1.137c-.296-.388-.679-.656-.91-.656-.67 0-1.197.903-1.197 2.021v3.416h-.971v-6.552h.972zm12.592 1.719c-.563-.509-.936-.658-1.364-.658-.889 0-1.501.906-1.501 2.233 0 1.352.658 2.166 1.665 2.166.418 0 .813-.144 1.31-.434v1.272c-.334.205-.96.376-1.474.376-1.471 0-2.498-1.344-2.498-3.264 0-2.167.939-3.536 2.434-3.536.572 0 .953.176 1.429.451v1.393zm-7.391 4.833h.973V22.66h-.973v6.551zm1.005-8.906c.095.316-.071.763-.364.991-.295.228-.606.155-.695-.162-.089-.32.072-.763.368-.991.292-.231.602-.158.691.162zm-43.55.53c-.172 0-.244.037-.314.141a.345.345 0 0 0-.049.163l-.872 4.388c-.205 1.539-1.63 3.076-3.488 3.076H21.77l.448-2.255h1.659c.169 0 .302-.083.413-.247a.598.598 0 0 0 .101-.265l.688-3.834c.203-1.54 1.43-3.241 3.287-3.241h2.646l-.338 2.074h-1.598zm.596 2.674.295-1.42h2.688c.332-2.059.071-3.966-.871-5.215-1.907-2.529-5.895-1.669-8.867 2.101a13.441 13.441 0 0 0-1.213 1.865h1.618l-.376 1.423h-1.933c-.185.449-.358.894-.491 1.345h2.292l-.367 1.423h-2.253c-.385 2.174-.14 4.201.83 5.488 1.883 2.496 5.86 1.619 8.83-2.151.52-.656.949-1.363 1.337-2.09h-2.079l.317-1.42h2.43c.178-.451.342-.898.47-1.349h-2.656z"/></symbol><symbol id="telegram-icon-min" viewBox="0 0 32 32"><path style="fill:var(--color1,#000)" d="M16 0h-.002C7.163 0 0 7.163 0 15.998V16c.003 8.835 7.165 15.997 16 16h.002C24.837 32 32 24.837 32 16.002V16C31.997 7.165 24.835.003 16 0z"/><path fill="#fff" style="fill:var(--color3,#fff)" d="M7.242 15.831c4.666-2.031 7.775-3.371 9.331-4.019 4.445-1.848 5.368-2.17 5.97-2.18.132-.002.427.031.619.186.161.131.206.31.228.434a2.8 2.8 0 0 1 .025.63c-.239 2.529-1.282 8.67-1.813 11.503-.222 1.198-.665 1.6-1.092 1.64-.929.086-1.635-.614-2.535-1.204-1.407-.924-2.202-1.498-3.57-2.399-1.579-1.041-.555-1.613.345-2.548.235-.246 4.33-3.969 4.408-4.307.01-.042.021-.2-.075-.283-.093-.083-.23-.055-.33-.032-.142.031-2.39 1.518-6.75 4.46-.637.439-1.215.652-1.734.64-.571-.01-1.67-.322-2.488-.588-1-.325-1.797-.498-1.728-1.051.035-.288.434-.582 1.19-.884z"/></symbol><symbol id="viber-icon-min" viewBox="0 0 32 32"><path fill="#7360f2" style="fill:var(--color12,#7360f2)" d="m24.131.825.578.119.056.01a8.564 8.564 0 0 1 3.942 1.973l.008.007a7.582 7.582 0 0 1 2.267 3.606l-.048-.198C31.628 8.783 32 11.36 32 14.024s-.372 5.241-1.018 7.484l-.013.053a7.56 7.56 0 0 1-2.261 3.56l.009-.008a8.609 8.609 0 0 1-4.007 1.992l-.578.117a40.466 40.466 0 0 1-10.404.761L9.08 31.801a.915.915 0 0 1-.85.155l-.006-.002a.859.859 0 0 1-.364-.232.752.752 0 0 1-.188-.374l-.793-4.34-.059-.013a8.513 8.513 0 0 1-3.678-2.013l-.005-.004a7.549 7.549 0 0 1-2.121-3.471l.048.198C.37 19.264-.002 16.687-.002 14.023S.37 8.782 1.016 6.539l.013-.053a7.56 7.56 0 0 1 2.261-3.56A8.605 8.605 0 0 1 7.287.942l.578-.117-.264.047C10.31.301 13.119.001 15.998.001s5.688.3 8.133.824zM9.304 6.41a1.488 1.488 0 0 0-.922.169l.008-.004h-.024a6.93 6.93 0 0 0-1.701 1.284l-.002.002c-.41.434-.631.871-.689 1.293-.034.25-.01.503.069.742l.031.015a17.922 17.922 0 0 0 1.832 3.621l-.042-.067a21.256 21.256 0 0 0 3.449 4.331l.007.006.041.054.064.043.039.042.047.037a23.055 23.055 0 0 0 4.607 3.129l.129.061c1.965.983 3.159 1.447 3.876 1.641v.008c.21.06.399.087.593.087a2.867 2.867 0 0 0 1.641-.647 6.329 6.329 0 0 0 1.385-1.569v-.011c.342-.594.227-1.153-.268-1.533a20.6 20.6 0 0 0-3.201-2.111c-.763-.38-1.538-.15-1.851.234l-.669.776c-.344.384-.966.33-.966.33l-.018.01c-4.649-1.09-5.89-5.412-5.89-5.412s-.058-.587.373-.888l.838-.619c.402-.299.681-1.01.25-1.709a18.763 18.763 0 0 0-2.299-2.946l.006.007a1.298 1.298 0 0 0-.742-.41l-.008-.001.004.002zm7.853-1.878h-.006a.89.89 0 0 0-.596.229l.001-.001a.751.751 0 0 0-.249.553c0 .206.09.406.249.552a.887.887 0 0 0 .596.229h.006c2.154 0 3.941.645 5.356 1.883a6.93 6.93 0 0 1 1.647 2.313l.017.044c.373.879.543 1.819.499 2.76a.722.722 0 0 0 .052.301c.042.102.1.189.173.261.153.15.36.244.589.252h.001a.892.892 0 0 0 .614-.207l-.001.001a.754.754 0 0 0 .274-.54v-.002a7.737 7.737 0 0 0-.634-3.442l.019.05a8.513 8.513 0 0 0-2.043-2.893l-.006-.005-.018-.015c-1.755-1.539-3.976-2.325-6.54-2.325zm-.058 2.569h-.005a.89.89 0 0 0-.598.23l.001-.001a.749.749 0 0 0-.249.552c0 .206.09.406.249.552a.888.888 0 0 0 .597.229h.034c1.553.102 2.684.577 3.475 1.356.812.804 1.233 1.802 1.201 3.038a.746.746 0 0 0 .235.557.886.886 0 0 0 .595.242h.001a.886.886 0 0 0 .608-.217.753.753 0 0 0 .263-.546v-.001c.041-1.621-.527-3.019-1.655-4.135v-.003c-1.152-1.135-2.733-1.735-4.637-1.853l-.029-.003-.086.002zm-.032 2.618a.917.917 0 0 0-.344.037l.007-.002a.876.876 0 0 0-.297.155l.002-.001a.785.785 0 0 0-.204.244l-.002.004a.727.727 0 0 0 .142.875.859.859 0 0 0 .271.179l.006.002a.89.89 0 0 0 .331.067c.712.035 1.166.232 1.452.495.288.266.502.693.541 1.361.003.111.03.215.076.308l-.002-.004a.781.781 0 0 0 .197.254.901.901 0 0 0 .58.209.928.928 0 0 0 .38-.081l-.006.002a.825.825 0 0 0 .268-.19.771.771 0 0 0 .166-.266l.002-.005a.717.717 0 0 0 .038-.312v.003c-.055-.937-.375-1.765-1.029-2.375-.66-.609-1.557-.906-2.574-.957z"/></symbol><symbol id="work-icon-min" viewBox="0 0 119 113"><path fill="#fff" d="M71.4 23.79V11.895H47.6V23.79h23.8ZM11.9 35.684v65.421h95.2v-65.42H11.9Zm95.2-11.894c6.604 0 11.9 5.293 11.9 11.894v65.421A11.857 11.857 0 0 1 107.1 113H11.9C5.295 113 0 107.707 0 101.105l.06-65.42c0-6.602 5.236-11.896 11.84-11.896h23.8V11.896A11.856 11.856 0 0 1 47.6 0h23.8c6.604 0 11.9 5.293 11.9 11.895V23.79h23.8Z"/></symbol><symbol id="next-icon-min" viewBox="0 0 8 12"><path d="M1.4 12 0 10.6 4.6 6 0 1.4 1.4 0l6 6-6 6Z"/></symbol><symbol id="location-icon-min" viewBox="0 0 18 24"><path d="M9 24s9-8.529 9-15A9 9 0 1 0 0 9c0 6.471 9 15 9 15Zm0-10.5a4.5 4.5 0 1 1 0-9 4.5 4.5 0 0 1 0 9Z" fill="#fff"/></symbol><symbol id="prev-icon-min" viewBox="0 0 8 12"><path d="m6 0 1.4 1.4L2.8 6l4.6 4.6L6 12 0 6l6-6Z"/></symbol><symbol id="wave" viewBox="0 0 1440 320"><path fill="#273036" d="m0 256 80-21.3c80-21.7 240-63.7 400-64 160 .3 320 42.3 480 32C1120 192 1280 128 1360 96l80-32v256H0Z"/></symbol></defs></svg>