<svg aria-hidden="true" style="position: absolute; width: 0; height: 0; overflow: hidden;" version="1.1" xmlns="http://www.w3.org/2000/svg" xmlns:xlink="http://www.w3.org/1999/xlink">
<defs>
<symbol id="burger-icon-close-min" viewBox="0 0 32 32">
<path d="M16.027 19.046l12.29 12.29c0.392 0.385 0.93 0.623 1.523 0.623 1.2 0 2.172-0.973 2.172-2.172 0-0.593-0.238-1.131-0.624-1.523l-12.29-12.291 12.29-12.29c0.385-0.392 0.623-0.93 0.623-1.523 0-1.2-0.973-2.172-2.172-2.172-0.593 0-1.131 0.238-1.523 0.624l-12.29 12.29-12.292-12.29c-0.388-0.366-0.912-0.591-1.489-0.591-1.2 0-2.172 0.973-2.172 2.172 0 0.578 0.225 1.103 0.593 1.492l-0.001-0.001 12.288 12.29-12.289 12.292c-0.401 0.394-0.649 0.943-0.649 1.549 0 1.2 0.973 2.172 2.172 2.172 0.606 0 1.154-0.248 1.549-0.649l12.292-12.291z"></path>
</symbol>
<symbol id="burger-icon-min" viewBox="0 0 33 26">
<path d="M2 24H33M2 13H33M2 2H33" stroke-width="3.5" stroke-linecap="round" stroke-linejoin="round"/>
</symbol>
<symbol id="ceresit-icon-min" viewBox="0 0 201 32">
<path fill="#000" style="fill: var(--color1, #000)" d="M78.125 13.74v-10.494c-2.137-0.944-4.396-1.426-6.671-1.426-8.815 0-15.207 6.296-15.207 14.887 0 4.95 2.064 9.106 5.876 11.918 2.58 1.901 5.758 2.937 9.213 2.937 2.224 0 4.409-0.436 6.67-1.354l0.319-10.65c-2.263 1.661-4.209 2.612-6.314 2.612-3.335 0-5.36-2.218-5.36-5.464 0-3.444 2.264-5.623 5.559-5.623 2.144 0.001 4.049 0.874 5.916 2.654zM90.87 18.055c0.199-1.544 0.993-2.294 2.224-2.294 1.389 0 2.066 0.713 2.183 2.294h-4.406zM104.608 22.411c0.040-0.355 0.040-0.713 0.040-1.069 0-6.572-4.923-11.166-11.792-11.166-6.87 0-11.713 4.83-11.713 10.69 0 5.859 4.884 10.696 11.713 10.696 5.678 0 9.686-2.58 11.157-6.776l-9.014-0.594c-0.437 1.029-1.112 1.545-1.985 1.545-1.509 0-2.224-0.992-2.224-3.011v-0.316l13.818 0.001zM107.668 30.804h9.767v-7.918c0-2.455 1.43-3.841 3.892-3.841 0.795 0 1.708 0.315 2.74 0.87v-9.701c-0.24-0.039-0.477-0.039-0.715-0.039-2.581 0-4.647 1.187-6.235 3.444v-2.812h-9.45v19.997zM135.858 18.055c0.199-1.544 0.993-2.294 2.224-2.294 1.39 0 2.066 0.713 2.185 2.294h-4.409zM149.597 22.411c0.040-0.355 0.040-0.713 0.040-1.069 0-6.572-4.923-11.166-11.792-11.166s-11.714 4.83-11.714 10.69c0 5.859 4.884 10.696 11.714 10.696 5.678 0 9.687-2.58 11.156-6.776l-9.012-0.594c-0.437 1.029-1.113 1.545-1.985 1.545-1.509 0-2.224-0.992-2.224-3.011v-0.316l13.818 0.001zM150.551 29.379c2.935 1.453 6.079 2.195 9.251 2.184 6.194 0 9.887-3.372 9.887-7.611 0-2.968-1.866-4.632-5.676-5.542-2.026-0.475-3.139-0.554-3.139-1.426 0-0.594 0.557-1.031 1.469-1.031 1.072 0 2.542 0.634 4.328 1.822l2.383-6.019c-2.264-1.029-4.925-1.584-7.664-1.584-5.836 0-9.49 3.128-9.49 7.127 0 3.009 1.748 4.83 5.401 5.663 1.627 0.355 2.659 0.355 2.659 1.307 0 0.713-0.556 1.148-1.587 1.148-1.231 0-3.018-0.713-5.241-2.218l-2.58 6.178zM172.229 30.804h9.729v-19.995h-9.729v19.995zM182.355 4.592c0-2.771-1.906-4.592-5.24-4.592-3.336 0-5.28 1.821-5.28 4.592s1.983 4.673 5.28 4.673c3.295 0 5.24-1.901 5.24-4.673zM187.677 30.804h9.727v-12.631h2.779v-7.364h-2.779v-6.612h-9.727v6.612h-2.74v7.364h2.74v12.631z"></path>
<path fill="#cc2229" style="fill: var(--color2, #cc2229)" d="M21.062 1.797c11.457 0 20.801 6.652 20.801 14.806 0 8.157-9.344 14.808-20.8 14.808s-20.801-6.651-20.801-14.809c0-8.154 9.344-14.806 20.8-14.806z"></path>
<path fill="#fff" style="fill: var(--color3, #fff)" d="M3.708 21.341v-9.691h1.664v3.66h3.175v-3.66h1.663v9.691h-1.663v-4.298h-3.175v4.298h-1.663zM11.156 17.586c0-0.638 0.12-1.264 0.287-1.789 0.186-0.541 0.509-0.994 0.927-1.335l0.005-0.004c0.409-0.317 0.983-0.52 1.653-0.52 0.674 0 1.245 0.216 1.637 0.55 0.42 0.381 0.732 0.875 0.889 1.433l0.005 0.021c0.172 0.632 0.264 1.294 0.272 1.959v0.33h-4.118c0.074 1.157 0.551 1.738 1.423 1.738 0.236 0 0.477-0.101 0.639-0.221 0.171-0.125 0.302-0.317 0.372-0.543h1.612c-0.116 0.479-0.309 0.9-0.568 1.272l0.008-0.012c-0.232 0.331-0.534 0.598-0.886 0.782l-0.014 0.006c-0.34 0.166-0.738 0.266-1.159 0.272l-0.002 0c-1.983 0-2.982-1.315-2.982-3.932v-0.007zM12.783 17.042h2.427c-0.026-0.474-0.172-0.873-0.381-1.132-0.102-0.128-0.228-0.232-0.372-0.307l-0.006-0.003c-0.129-0.067-0.283-0.107-0.445-0.107-0.002 0-0.003 0-0.005 0h0c-0.706 0-1.113 0.517-1.223 1.548h0.005zM17.737 21.341v-7.219h1.518v1.087h0.025c0.387-0.84 0.989-1.27 1.804-1.27 0.424 0 0.827 0.12 1.115 0.284 0.293 0.164 0.58 0.494 0.728 0.829 0.151 0.34 0.256 0.852 0.256 1.302v4.987h-1.584v-4.33c0-0.443-0.084-0.822-0.184-1.043-0.099-0.229-0.409-0.386-0.858-0.386-0.429 0-0.765 0.183-0.936 0.474-0.184 0.342-0.292 0.749-0.293 1.181v4.103l-1.59 0.001zM24.374 21.341v-9.691h1.585v9.691h-1.585zM30.145 17.586c0-0.638 0.12-1.264 0.288-1.789 0.182-0.542 0.505-0.997 0.925-1.335l0.006-0.004c0.429-0.342 0.983-0.52 1.648-0.52 0.676 0 1.251 0.209 1.643 0.55 0.398 0.342 0.733 0.878 0.895 1.454 0.162 0.575 0.267 1.302 0.267 1.959v0.33h-4.112c0.068 1.157 0.549 1.738 1.423 1.738 0.236 0 0.475-0.101 0.639-0.221 0.161-0.126 0.313-0.329 0.366-0.543h1.617c-0.117 0.479-0.31 0.9-0.568 1.272l0.008-0.013c-0.233 0.332-0.538 0.598-0.892 0.782l-0.014 0.006c-0.338 0.166-0.735 0.266-1.154 0.272l-0.002 0c-1.988 0-2.981-1.315-2.981-3.932l-0.001-0.007zM31.771 17.042h2.427c-0.026-0.474-0.183-0.886-0.381-1.132-0.103-0.127-0.229-0.23-0.372-0.305l-0.007-0.003c-0.13-0.068-0.284-0.108-0.448-0.109h-0c-0.706 0-1.12 0.518-1.224 1.549h0.005zM36.798 21.341v-9.691h1.59v9.691h-1.59zM27.989 14.678h1.711l-2.056 2.801 2.443 3.861h-1.711l-2.443-3.861 2.056-2.801z"></path>
</symbol>
<symbol id="email-icon-min" viewBox="0 0 41 32">
<path fill="#a74d4a" style="fill: var(--color4, #a74d4a)" d="M41.412 4c0-2.2-1.864-4-4.141-4h-33.129c-2.278 0-4.141 1.8-4.141 4v24c0 2.2 1.864 4 4.141 4h33.129c2.278 0 4.141-1.8 4.141-4v-24zM37.271 4l-16.565 9.98-16.565-9.98h33.129zM37.271 28h-33.129v-20l16.565 10.001 16.565-10.001v20z"></path>
</symbol>
<symbol id="estimate-icon-min" width="81" height="113" viewBox="0 0 81 113">
<path fill="#ffffff" d="M79.4156 29.4281L51.1969 1.20937C50.3906 0.403125 49.5844 0 48.375 0H8.0625C3.62812 0 0 3.62812 0 8.0625V104.812C0 109.247 3.62812 112.875 8.0625 112.875H72.5625C76.9969 112.875 80.625 109.247 80.625 104.812V32.25C80.625 31.0406 80.2219 30.2344 79.4156 29.4281ZM48.375 9.675L70.95 32.25H48.375V9.675ZM72.5625 104.812H8.0625V8.0625H40.3125V32.25C40.3125 36.6844 43.9406 40.3125 48.375 40.3125H72.5625V104.812Z"/>
<path fill="#ffffff" d="M16.125 80.625H64.5V88.6875H16.125V80.625ZM16.125 56.4375H64.5V64.5H16.125V56.4375Z"/>
</symbol>
<symbol id="experience--icon-min" viewBox="0 0 26 32">
<path fill="#a74d4a" style="fill: var(--color4, #a74d4a)" d="M25.958 14.545c0 8.073-5.538 15.622-12.979 17.455-7.441-1.833-12.979-9.382-12.979-17.455v-8.727l12.979-5.818 12.979 5.818v8.727zM12.979 29.091c5.408-1.455 10.095-7.942 10.095-14.225v-7.156l-10.095-4.538-10.095 4.538v7.156c0 6.284 4.687 12.771 10.095 14.225zM11.537 18.909h2.884v4.364h4.327v-7.273h2.884l-8.653-7.273-8.653 7.273h2.884v7.273h4.326v-4.364z"></path>
</symbol>
<symbol id="expert-icon-min" width="99" height="116" viewBox="0 0 99 116">
<path fill="#ffffff" d="M74.25 42.7368C74.25 75.2779 24.75 75.2779 24.75 42.7368H37.125C37.125 59.0379 61.875 59.0379 61.875 42.7368M99 97.6842V116H0V97.6842C0 81.3832 32.9794 73.2632 49.5 73.2632C66.0206 73.2632 99 81.3832 99 97.6842ZM87.2438 97.6842C87.2438 93.7768 67.8769 84.8632 49.5 84.8632C31.1231 84.8632 11.7563 93.7768 11.7563 97.6842V104.4H87.2438M52.5938 0C54.3262 0 55.6875 1.34316 55.6875 3.05263V21.3684H61.875V6.10526C66.2539 8.10488 69.9227 11.357 72.4053 15.4395C74.8878 19.5221 76.0694 24.2466 75.7969 29C75.7969 29 80.1281 29.8547 80.4375 36.6316H18.5625C18.5625 29.8547 23.2031 29 23.2031 29C22.9306 24.2466 24.1122 19.5221 26.5947 15.4395C29.0773 11.357 32.7461 8.10488 37.125 6.10526V21.3684H43.3125V3.05263C43.3125 1.34316 44.6738 0 46.4062 0" fill="black"/>
</symbol>
<symbol id="flag-icon-min" viewBox="0 0 25 32">
<path fill="#545454" style="fill: var(--color5, #545454)" d="M1.753 0h19.917c0.786 0 1.422 0.637 1.423 1.422v27.226c0 0.001 0 0.002 0 0.002 0 0.392-0.318 0.711-0.711 0.711-0.141 0-0.272-0.041-0.382-0.111l0.003 0.002-10.292-6.453-10.292 6.451c-0.107 0.068-0.238 0.109-0.378 0.109-0.393 0-0.711-0.318-0.711-0.71v-27.226c0-0 0-0 0-0.001 0-0.785 0.637-1.422 1.422-1.422 0 0 0.001 0 0.001 0h-0z"></path>
</symbol>
<symbol id="knauf-icon-min" viewBox="0 0 96 32">
<path fill="#00acec" style="fill: var(--color6, #00acec)" d="M84.015 7.903h12.38l-1.216 3.454h-5.027l-1.164 3.261h4.497l-1.111 3.261h-4.497l-4.815 14.121h-7.353l8.306-24.097zM81.37 7.903h-7.512l-4.551 12.684c-0.317 0.857-0.582 1.409-0.793 1.658-0.265 0.221-0.583 0.331-1.059 0.331-0.423 0-0.687-0.111-0.741-0.304-0.053-0.221 0.054-0.691 0.318-1.465l4.655-12.905h-7.565l-3.651 10.197c-0.687 1.935-1.111 3.206-1.216 3.814-0.053 0.608 0.105 1.188 0.583 1.741 0.422 0.553 1.269 0.995 2.485 1.327 1.218 0.359 2.646 0.525 4.392 0.525 1.587 0 2.963-0.138 4.233-0.442 1.27-0.277 2.328-0.718 3.228-1.271s1.535-1.105 1.852-1.631c0.371-0.524 0.741-1.436 1.216-2.763l4.128-11.495zM50.632 18.985c0.317-1.962 0.793-4.339 1.481-7.213-1.958 3.289-3.281 5.665-3.968 7.213h2.487zM58.302 7.903l-2.328 17.243h-6.931l0.741-3.122h-2.645l-1.587 3.122h-7.512l10.581-17.243h9.681zM42.643 7.903h-6.349l-2.751 7.765-1.481-7.765h-6.295l-6.191 17.243h6.349l2.804-7.848 1.111 7.848h6.613l6.19-17.243zM22.38 8.041l-6.243 7.793 1.534 9.312h-6.931l-1.269-6.162-2.222 6.162h-7.249l7.565-25.146h7.248l-3.704 13.762 4.603-5.72h6.667z"></path>
</symbol>
<symbol id="legrand-icon-min" viewBox="0 0 150 32">
<path fill="#000" style="fill: var(--color1, #000)" d="M0 1.776h6.679v15.163l7.336 0.024v5.721h-14.015v-20.909zM24.304 22.684h-6.706v-15.163l-7.338-0.049v-5.696h14.043v20.909z"></path>
<path fill="#000" style="fill: var(--color1, #000)" d="M7.682 0h1.662v7.496h-1.662v-7.496zM15.076 16.891h1.634v7.47h-1.634v-7.47z"></path>
<path fill="#cc2229" style="fill: var(--color2, #cc2229); stroke: var(--color2, #cc2229)" stroke="#cc2229" stroke-linejoin="miter" stroke-linecap="butt" stroke-miterlimit="2.613" stroke-width="1.4227" d="M32.902 1.011h5.675v22.587h-5.675v-22.586zM80.564 6.954h5.617v1.652c1.892-1.553 3.038-1.924 5.933-2.071v3.772c-1.863 0.123-5.933 1.382-5.933 4.315v9h-5.617v-16.667zM112.806 8.507l-0.028-1.554h-5.646v16.669h5.646v-10.331c-0.086-1.504 4.901-3.92 4.958 0.345v9.986h5.674v-11.49c-0.001-4.907-5.16-6.732-10.605-3.625z"></path>
<path fill="#cc2229" style="fill: var(--color2, #cc2229)" d="M97.559 6.534c-1.118-0.073-2.235-0.073-3.268-0.099v3.797c1.234-0.049 2.38-0.025 3.268 0.099 1.26 0.173 2.064 0.542 2.093 1.233v1.208c-0.687-0.37-1.377-0.641-2.093-0.814-0.545-0.123-1.118-0.173-1.72-0.173-3.839 0-6.591 2.638-6.591 5.942 0 3.279 2.866 5.893 6.678 5.893 0.573 0 1.117-0.024 1.634-0.124 0.774-0.132 1.467-0.372 2.102-0.708l-0.038 0.018 0.028 0.813h5.646v-12.056c0.001-3.921-3.896-4.808-7.737-5.031zM97.559 19.726c-1.576 0-2.866-1.086-2.866-2.442s1.29-2.466 2.866-2.466c0.375 0 0.747 0.064 1.093 0.188 0.356 0.128 0.663 0.31 0.928 0.539l-0.004-0.003c0.264 0.229 0.472 0.501 0.613 0.8 0.131 0.269 0.207 0.585 0.207 0.92 0 0.008-0 0.015-0 0.023v-0.001c0 0.002 0 0.004 0 0.006 0 0.338-0.079 0.658-0.218 0.942l0.006-0.013c-0.154 0.313-0.361 0.576-0.611 0.79l-0.003 0.003c-0.264 0.227-0.577 0.407-0.922 0.529-0.32 0.117-0.69 0.184-1.075 0.184-0.005 0-0.009 0-0.014-0h0.001zM136.766 0.962l-0.028 7.421c-0.947-0.592-1.977-0.986-3.124-1.135-0.315-0.049-0.659-0.049-1.004-0.049-4.499 0-8.167 3.6-8.167 8.013s3.668 8.014 8.167 8.014c0.345 0 0.689-0.024 1.004-0.074 1.174-0.197 2.263-0.665 3.18-1.257l-0.028 1.653h5.675v-22.587h-5.675zM133.614 18.345c-2.093 0-3.784-1.528-3.784-3.403 0-1.849 1.691-3.378 3.784-3.378s3.811 1.529 3.811 3.378c0 1.875-1.719 3.403-3.811 3.403zM59.011 16.472c0.086-0.444 0.115-0.864 0.115-1.282 0-4.858-4.27-8.827-9.515-8.852h-0.057c-5.244 0-9.544 3.97-9.544 8.852 0 4.857 4.3 8.826 9.544 8.826h0.057c4.013-0.024 7.451-2.416 8.827-5.671h-5.761c-0.631 0.691-1.375 1.135-2.866 1.159h-0.201c-1.432-0.074-3.095-1.183-3.353-3.058h3.353l9.4 0.025zM46.315 13.489c0.373-1.947 1.462-2.811 3.297-2.91h0.115c1.892-0.099 2.866 1.109 3.181 2.885h-3.295l-3.297 0.025zM73.083 6.954l-0.029 1.776c-0.972-0.788-2.171-1.332-3.485-1.524l-0.039-0.005c-0.297-0.047-0.64-0.074-0.989-0.074-0.005 0-0.010 0-0.014 0h0.001c-4.758 0-8.627 3.6-8.627 8.014 0 4.389 3.869 7.988 8.627 7.988 0.344 0 0.687 0 1.003-0.024 1.318-0.099 2.464-0.444 3.554-1.135 0.918 2.268-1.175 4.808-3.554 4.66-0.946-0.050-1.921-0.518-2.752-1.578h-7.021c1.232 3.92 5.559 6.066 9.773 6.141 4.671 0.099 9.199-2.344 9.199-7.644v-16.595h-5.646zM69.53 18.814c-2.121 0-3.869-1.603-3.869-3.55s1.749-3.526 3.869-3.526c2.15 0 3.868 1.578 3.868 3.526s-1.719 3.55-3.868 3.55z"></path>
<path fill="none" stroke="#cc2229" style="stroke: var(--color2, #cc2229)" stroke-linejoin="miter" stroke-linecap="butt" stroke-miterlimit="2.613" stroke-width="1.4227" d="M73.054 8.729l0.029-1.775h5.646v16.594M78.729 23.547c0 10.085-16.364 9.79-18.972 1.505zM59.757 25.052l7.021-0.001zM66.778 25.051c2.981 3.748 7.566 0.074 6.305-3.082-1.376 0.863-2.779 1.159-4.556 1.159-4.758 0-8.627-3.6-8.627-7.989 0-4.413 3.869-8.014 8.627-8.014 1.776 0 3.353 0.641 4.527 1.603M69.53 11.737c2.15 0 3.868 1.578 3.868 3.526s-1.719 3.55-3.868 3.55c-2.121 0-3.869-1.603-3.869-3.55s1.749-3.525 3.869-3.525z"></path>
<path fill="#000" style="fill: var(--color1, #000)" d="M144.76 2.965c0-1.248 1.092-2.188 2.494-2.188 1.386 0 2.479 0.941 2.479 2.188 0 1.268-1.093 2.202-2.479 2.202-1.402 0-2.494-0.935-2.494-2.202zM147.254 5.607c1.668 0 3.095-1.115 3.095-2.641 0-1.513-1.426-2.628-3.095-2.628-1.685 0-3.111 1.115-3.111 2.627 0 1.526 1.427 2.642 3.111 2.642zM146.606 3.175h0.616l0.933 1.317h0.599l-1.005-1.338c0.519-0.056 0.915-0.293 0.915-0.836 0-0.599-0.413-0.864-1.248-0.864h-1.344v3.038h0.533v-1.317zM146.606 2.784v-0.941h0.728c0.374 0 0.771 0.070 0.771 0.446 0 0.467-0.405 0.495-0.858 0.495h-0.641z"></path>
</symbol>
<symbol id="list-item-icon-min" viewBox="0 0 34 32">
<path fill="#a74d4a" style="fill: var(--color4, #a74d4a)" d="M31.565 31.115c-0.493 0.491-1.173 0.795-1.924 0.795s-1.431-0.304-1.924-0.795l-6.206-6.186c-0.495-0.494-0.802-1.176-0.802-1.931 0-1.505 1.22-2.726 2.726-2.726 0.751 0 1.431 0.304 1.924 0.795l6.206 6.185c0.495 0.494 0.802 1.176 0.802 1.931s-0.306 1.437-0.802 1.931l-0 0zM6.189 31.115c-0.493 0.491-1.173 0.795-1.924 0.795-1.505 0-2.726-1.22-2.726-2.726 0-0.754 0.306-1.437 0.802-1.931l9.182-9.151c0.401-0.4 0.649-0.952 0.649-1.563s-0.248-1.164-0.649-1.563l-0-0-0.914-0.911c-0.165-0.164-0.392-0.266-0.644-0.266s-0.479 0.102-0.644 0.266l0-0c-0.165 0.164-0.392 0.266-0.644 0.266s-0.479-0.102-0.644-0.266l0 0-0.043-0.042c-0.613-0.611-1.658-0.177-1.658 0.689v0.881c0 0.711-0.576 1.287-1.287 1.287-0.355 0-0.676-0.143-0.908-0.375l0 0-3.742-3.73c-0.233-0.232-0.377-0.554-0.377-0.908 0-0.708 0.574-1.283 1.282-1.283h0.946c0.845 0 1.268-1.023 0.669-1.62-0.172-0.172-0.279-0.409-0.279-0.671s0.106-0.5 0.278-0.671l5.854-5.834c0.613-0.611 1.272-1.054 1.977-1.329 0.64-0.26 1.382-0.412 2.16-0.413h0c0.735 0 1.455 0.138 2.161 0.413 1.234 0.481 1.215 2.088 0.278 3.022l-1.381 1.376c-0.294 0.293-0.476 0.698-0.476 1.145s0.182 0.852 0.475 1.145l0.506 0.504c0.355 0.354 0.355 0.929 0 1.283-0.165 0.164-0.267 0.391-0.267 0.642s0.102 0.478 0.267 0.642l0 0 0.924 0.921c0.399 0.398 0.95 0.644 1.558 0.644s1.159-0.246 1.558-0.644l1.803-1.797c0.473-0.472 0.614-1.173 0.478-1.827-0.077-0.366-0.116-0.733-0.116-1.099 0-1.802 0.621-3.322 1.863-4.56 1.241-1.236 2.765-1.854 4.573-1.854 0.46 0 0.897 0.046 1.311 0.137 0.622 0.138 0.772 0.903 0.321 1.352l-1.948 1.941c-0.411 0.421-0.664 0.997-0.664 1.632 0 1.29 1.046 2.337 2.337 2.337 0.632 0 1.206-0.251 1.626-0.659l-0.001 0.001 1.955-1.948c0.467-0.465 1.263-0.332 1.385 0.315 0.076 0.413 0.114 0.849 0.114 1.307 0 1.802-0.62 3.321-1.861 4.557-1.242 1.238-2.767 1.857-4.575 1.857-0.367 0-0.735-0.030-1.103-0.091-0.658-0.109-1.37-0.009-1.843 0.461l-17.977 17.917z"></path>
</symbol>
<symbol id="logo-icon-min" viewBox="0 0 32 32">
<path fill="#a74d4a" style="fill: var(--color4, #a74d4a)" d="M4.563 25.877l1.683 1.623v-15.21h-1.683v13.587z"></path>
<path fill="#545454" style="fill: var(--color5, #545454)" d="M5.528 13.145l0.007 3.314-0.016-0.016 0.617-0.001-0.018 0.017 0.123-3.323 0.011 0.011-0.723-0.002zM5.519 13.126c0.122-0.011 0.245-0.023 0.366-0.032 0.122-0.010 0.245-0.019 0.366-0.027l0.066-0.003 0.002 0.074c0.009 0.277 0.009 0.554 0.013 0.833v0.415c-0.001 0.139 0.001 0.278-0.002 0.417l-0.006 0.415c-0.003 0.139-0.003 0.277-0.008 0.416l-0.023 0.831-0.005 0.154-0.154-0.002-0.769-0.007v-0.151c0.001-0.138 0.006-0.277 0.007-0.415l0.009-0.414c0.002-0.139 0.008-0.278 0.012-0.416l0.014-0.416c0.014-0.276 0.023-0.554 0.042-0.831 0.007-0.138 0.016-0.277 0.027-0.415 0.009-0.138 0.022-0.277 0.033-0.415l0.001-0.007 0.008-0.002zM5.528 17.11l0.005 0.379-0.013-0.014 0.615-0.003-0.017 0.017c-0.001-0.129 0.001-0.259 0.002-0.387l0.015 0.015-0.307-0.002c-0.1 0-0.199-0.003-0.299-0.005zM5.519 17.093c0.025-0.011 0.051-0.021 0.077-0.029s0.051-0.017 0.077-0.023l0.077-0.020c0.026-0.007 0.051-0.011 0.077-0.017l0.077-0.015 0.077-0.011c0.051-0.007 0.103-0.015 0.154-0.019l0.127-0.011 0.015 0.154c0.006 0.065 0.010 0.129 0.013 0.193 0.002 0.033 0.002 0.065 0.002 0.097 0 0.014 0 0.032 0 0.049s-0 0.034-0 0.051l0-0.003-0.004 0.158-0.153-0.001c-0.056-0.001-0.11-0.002-0.164-0.005l0.009 0c-0.051-0.003-0.102-0.009-0.154-0.013-0.025-0.002-0.051-0.003-0.077-0.007l-0.077-0.011c-0.062-0.008-0.114-0.017-0.166-0.029l0.012 0.002-0.105-0.023 0.011-0.071c0.006-0.033 0.009-0.065 0.017-0.097l0.019-0.097c0.006-0.032 0.015-0.065 0.023-0.097s0.017-0.065 0.027-0.097l0.002-0.006 0.007-0.003zM5.044 25.684v-0.031c0.003-0.083 0.022-0.162 0.055-0.232l-0.002 0.004c0.029-0.062 0.069-0.114 0.116-0.157l0-0c0.061-0.052 0.137-0.090 0.22-0.105l0.003-0c0.022-0.003 0.047-0.006 0.073-0.006 0.071 0 0.139 0.015 0.2 0.043l-0.003-0.001c0.093 0.043 0.167 0.111 0.218 0.195l0.001 0.002c0.026 0.043 0.045 0.091 0.059 0.14 0.006 0.024 0.011 0.048 0.014 0.076 0.004 0.031 0.002 0.043 0.003 0.073-0.007 0.249-0.196 0.452-0.438 0.481l-0.002 0c-0.024 0.003-0.041 0.002-0.061 0.003-0.024 0-0.042-0.003-0.063-0.006-0.14-0.025-0.257-0.111-0.322-0.229l-0.001-0.002c-0.037-0.062-0.062-0.136-0.068-0.215l-0-0.002-0.002-0.030zM5.062 25.683l0.001 0.031c0 0.010 0.002 0.022 0.004 0.036 0.009 0.064 0.034 0.121 0.069 0.168l-0.001-0.001c0.030 0.041 0.074 0.081 0.127 0.11 0.061 0.033 0.134 0.052 0.211 0.052 0.008 0 0.016-0 0.024-0.001l-0.001 0c0.019-0.002 0.040-0.003 0.054-0.007 0.11-0.022 0.201-0.087 0.256-0.178l0.001-0.002c0.034-0.056 0.054-0.124 0.054-0.197 0-0.005-0-0.009-0-0.014l0 0.001c-0.002-0.013-0.003-0.045-0.007-0.055-0.003-0.016-0.009-0.033-0.014-0.050-0.013-0.035-0.030-0.066-0.051-0.093l0.001 0.001c-0.059-0.077-0.145-0.131-0.244-0.148l-0.002-0c-0.015-0.003-0.031-0.003-0.046-0.006h-0.005v-0.001h-0.018c-0.009 0-0.020-0.001-0.026 0-0.025 0.002-0.057 0.003-0.085 0.010-0.084 0.017-0.157 0.060-0.211 0.119l-0 0c-0.047 0.052-0.079 0.118-0.088 0.192l-0 0.002-0.003 0.030z"></path>
<path fill="#545454" style="fill: var(--color5, #545454)" d="M20.976 30.146s6.44-8.226 5.257-11.314c-0.902-2.527-1.68-3.12-1.68-3.12s-1.992-1.31-2.926-1.341c-0.249-0.343-1.993-1.248-1.993-1.248h-0.932l-2.989 0.718s-0.778 0.405-1.058 1.871c-2.148 0.593-3.512 3.953-3.512 3.953s-2.546 2.63-2.702 4.377c-0.716 0.593 0.591 2.33 0.591 2.33l2.768 0.235v3.719s2.246 0.716 4.906 0.541c2.165 0 4.269-0.722 4.269-0.722z"></path>
<path fill="#545454" style="fill: var(--color5, #545454)" d="M14.966 13.122s-0.86-0.733-1.72-1.003c-0.86-0.269-1.679-3.727-1.679-3.727s0.697-3.491 2.746-3.546c2.050-0.054 3.877 0.372 3.877 0.372s1.251 0.366 1.413 2.287c0.162 1.92-1.251 2.729-1.251 2.729l-3.386 2.888z"></path>
<path fill="#fff" style="fill: var(--color3, #fff)" d="M13.343 24.883l-4.193-1.159s-1.639 1.767-1.384 4.003c3.226 1.838 7.838-0.577 7.838-0.577l-2.261-2.266zM15.553 25.341l2.824-0.391 2.431 0.649s0.694 0.070 1.046 0.51c0.138 0.168 0.358 0.448 0.576 0.73l0.096 0.13s0.273 0.337 0.098 0.67c-0.175 0.333-0.698 1.133-0.698 1.133s-0.295 0.278-0.592-0.025c-0.566 0.318-0.743-0.18-0.743-0.18s-0.598 0.202-0.781-0.329c-0.154 0.229-0.658 0.112-0.658 0.112l-0.674-0.006s-0.282-0.305 0.078-0.531c0.36-0.227 0.528-0.169 0.528-0.169l-0.049-0.316-0.609-0.49s-0.503 0.243-1.739-0.070c-0.323-0.081-0.759-0.158-0.759-0.158s-0.559-0.757-0.377-1.267z"></path>
<path fill="#545454" style="fill: var(--color5, #545454)" d="M13.38 25.137l2.242 2.314-0.017 0.006c-0.318 0.121-0.642 0.227-0.968 0.326s-0.655 0.19-0.985 0.271c-0.558 0.148-1.241 0.276-1.938 0.357l-0.072 0.007c-0.677 0.072-1.363 0.093-2.041 0.008-0.373-0.045-0.711-0.123-1.034-0.233l0.036 0.011c-0.348-0.118-0.65-0.275-0.923-0.471l0.011 0.007-0.006-0.005-0.001-0.008c-0.008-0.083-0.013-0.18-0.013-0.278 0-0.071 0.003-0.141 0.007-0.211l-0.001 0.009c0.012-0.16-0.007-0.217 0.026-0.473 0.052-0.533 0.14-1.22 0.355-1.457s0.478-0.429 0.76-0.578c0.141-0.075 0.288-0.139 0.437-0.194 0.15-0.055 0.302-0.103 0.46-0.134h0.002l3.662 0.727zM13.373 25.154l-0.433 0.006c-0.145 0.003-0.29 0.002-0.437 0.003l-1.308 0.003c-0.145 0.001-0.29-0.002-0.436-0.003l-1.043-0.634 0.022-0.002c-0.171 0.042-0.317 0.089-0.457 0.147l0.021-0.008c-0.304 0.121-0.567 0.273-0.805 0.455l0.008-0.006c-0.121 0.091-0.231 0.194-0.331 0.306-0.199 0.223-0.233 0.898-0.313 1.399-0.019 0.234-0.007 0.29-0.017 0.439-0.003 0.049-0.005 0.105-0.005 0.162 0 0.102 0.005 0.202 0.016 0.301l-0.001-0.012-0.063-0.11c0.263 0.187 0.559 0.33 0.869 0.435 0.31 0.106 0.634 0.177 0.963 0.221 0.659 0.086 1.334 0.071 2.003 0.004 0.407-0.043 0.748-0.093 1.086-0.155l-0.086 0.013c0.167-0.029 0.333-0.061 0.498-0.095 0.959-0.193 1.779-0.423 2.573-0.706l-0.129 0.040-0.034 0.155-0.274-0.291c-0.090-0.098-0.183-0.194-0.272-0.293l-1.081-1.182c-0.18-0.195-0.355-0.394-0.534-0.592zM21.305 28.73s0.050-0.075 0.125-0.186c0.037-0.055 0.081-0.12 0.129-0.189s0.1-0.141 0.152-0.214c0.053-0.071 0.098-0.15 0.15-0.214 0.098-0.117 0.214-0.215 0.345-0.292l0.006-0.003 0.014 0.011s-0.006 0.023-0.021 0.062c-0.055 0.13-0.122 0.241-0.204 0.341l0.002-0.002c-0.054 0.063-0.122 0.123-0.183 0.188s-0.122 0.13-0.181 0.19c-0.055 0.056-0.107 0.109-0.16 0.162l-0.001 0.001c-0.094 0.095-0.159 0.157-0.159 0.157l-0.014-0.011zM20.497 28.57s0.049-0.075 0.125-0.186c0.038-0.055 0.081-0.12 0.13-0.189 0.047-0.069 0.1-0.142 0.151-0.214 0.053-0.072 0.098-0.15 0.151-0.215 0.085-0.101 0.181-0.187 0.289-0.259l0.005-0.003c0.034-0.023 0.057-0.033 0.057-0.033l0.013 0.011s-0.006 0.023-0.022 0.061c-0.054 0.13-0.122 0.241-0.204 0.341l0.002-0.002c-0.054 0.063-0.122 0.122-0.183 0.189-0.061 0.064-0.121 0.13-0.181 0.189-0.055 0.056-0.107 0.11-0.16 0.162l-0.001 0.001c-0.094 0.095-0.159 0.157-0.159 0.157l-0.014-0.011z"></path>
<path fill="#fff" style="fill: var(--color3, #fff)" d="M18.089 6.144s1.618 1.207 1.577 1.623c-0.042 0.416 0.59 5.452-0.489 5.909 0.166 0.583 0.662 0.571 0.662 0.571s0.343 1.563-1.234 3.185c-0.125 0.832-0.285 1.436-0.285 1.436l-0.895 0.317-2.779-6.89s-0.749-0.286-0.955-1.077c0.456-0.873 1.369-3.869 1.369-3.869s1.785-0.831 1.909-1.206h1.121zM3.795 23.693c-0.318-0.265-0.158-0.799-0.158-0.799s-0.346-0.419-0.126-0.776c-0.278-0.178-0.2-0.689-0.2-0.689s1.705-0.823 1.906-0.915c0.2-0.091 1.826 0.929 1.826 0.929l2.133 1.754 7.751 2.017s2.074-2.454 3.343-3.443c2.067 0.533 2.391 3.305 2.391 3.305s-2.453 2.72-4.266 4.063c-0.842 0.474-2.248-0.122-2.248-0.122s-5.169-1.805-7.791-3.573c0 0-1.99-0.044-3.094-1.054 0 0-0.262-0.019-0.355 0.107-0.093 0.124-0.454 0.629-0.454 0.629s-0.646-0.266-0.825-0.571c-0.18-0.306 0.167-0.861 0.167-0.861z"></path>
<path fill="#545454" style="fill: var(--color5, #545454)" d="M17.91 6.153h-1.117l0.009-0.006c-0.020 0.047-0.047 0.088-0.080 0.122l0-0c-0.033 0.035-0.067 0.067-0.102 0.097l-0.002 0.001c-0.067 0.056-0.142 0.112-0.219 0.165l-0.010 0.006c-0.158 0.107-0.321 0.205-0.487 0.298-0.331 0.187-0.67 0.36-1.013 0.523l0.006-0.007c-0.347 1.176-0.562 1.826-0.785 2.473l0.156-0.518c-0.055 0.162-0.111 0.324-0.168 0.485-0.056 0.162-0.115 0.322-0.174 0.483s-0.121 0.321-0.186 0.48c-0.031 0.079-0.066 0.157-0.1 0.235-0.034 0.079-0.074 0.155-0.11 0.233l0.001-0.009c0.010 0.031 0.017 0.065 0.031 0.096 0.024 0.071 0.052 0.132 0.085 0.189l-0.003-0.005c0.017 0.029 0.033 0.059 0.053 0.087 0.074 0.113 0.166 0.213 0.267 0.303 0.102 0.089 0.213 0.166 0.331 0.233 0.117 0.067 0.24 0.126 0.368 0.169l0.006 0.002 0.003 0.007 2.597 6.882-0.021-0.010 0.996-0.312-0.011 0.011c0.030-0.119 0.059-0.239 0.086-0.36l0.040-0.182c0.013-0.060 0.025-0.12 0.037-0.182l0.035-0.182 0.033-0.183c0.023-0.121 0.040-0.243 0.060-0.366l0.001-0.005 0.003-0.003 0.149-0.16c0.048-0.055 0.097-0.109 0.142-0.166s0.093-0.112 0.136-0.171c0.043-0.058 0.087-0.117 0.128-0.177 0.042-0.059 0.080-0.121 0.12-0.183 0.038-0.062 0.074-0.126 0.11-0.189 0.034-0.065 0.070-0.128 0.101-0.194 0.033-0.066 0.061-0.132 0.090-0.199 0.027-0.067 0.055-0.135 0.079-0.205 0.091-0.249 0.157-0.537 0.186-0.837l0.001-0.014c0.005-0.063 0.009-0.139 0.010-0.216l0-0.002c0-0.014 0-0.031 0-0.047 0-0.136-0.012-0.27-0.036-0.399l0.002 0.014 0.013 0.011c-0.256-0.021-0.474-0.165-0.596-0.373l-0.002-0.004c-0.038-0.065-0.070-0.139-0.093-0.218l-0.002-0.007-0.003-0.011 0.009-0.005c0.151-0.083 0.265-0.222 0.35-0.371 0.084-0.152 0.143-0.318 0.189-0.486 0.087-0.339 0.125-0.688 0.143-1.038s0.014-0.7 0-1.050c-0.019-0.412-0.045-0.774-0.080-1.135l0.007 0.087c-0.050-0.532-0.090-0.89-0.135-1.248l0.021 0.203-0.061-0.523c-0.009-0.069-0.017-0.16-0.022-0.251l-0.001-0.012c-0-0.007-0.001-0.016-0.001-0.024 0-0.015 0.001-0.030 0.002-0.044l-0 0.002c0-0.004 0-0.009 0-0.014 0-0.017-0.002-0.034-0.007-0.050l0 0.001c-0.012-0.045-0.029-0.084-0.050-0.121l0.001 0.002c-0.086-0.151-0.206-0.281-0.326-0.407s-0.249-0.245-0.379-0.361c-0.241-0.213-0.505-0.429-0.777-0.636l-0.034-0.025zM17.919 6.137c0.283 0.205 0.561 0.419 0.829 0.646 0.133 0.114 0.264 0.232 0.389 0.357 0.124 0.126 0.247 0.254 0.342 0.414 0.023 0.040 0.043 0.083 0.057 0.133 0.006 0.026 0.010 0.052 0.007 0.082 0.001 0.007-0.001 0.023 0 0.030l0.001 0.029c0.005 0.084 0.016 0.171 0.027 0.257l0.070 0.521c0.047 0.348 0.093 0.696 0.13 1.046s0.066 0.7 0.086 1.051c0.017 0.353 0.025 0.706 0.010 1.061s-0.049 0.711-0.137 1.063c-0.048 0.197-0.115 0.371-0.201 0.532l0.006-0.012c-0.091 0.164-0.219 0.325-0.399 0.429l0.059-0.146c0.011 0.034 0.023 0.068 0.037 0.099 0.041 0.096 0.101 0.178 0.174 0.244l0.001 0.001c0.072 0.062 0.161 0.108 0.257 0.132l0.004 0.001 0.048 0.009c0.012 0.002 0.026 0.003 0.041 0.004l0.001 0 0.109 0.004 0.021 0.101c0.018 0.088 0.026 0.16 0.033 0.239 0.005 0.062 0.008 0.135 0.008 0.208 0 0.088-0.004 0.176-0.012 0.262l0.001-0.011c-0.006 0.076-0.015 0.152-0.026 0.227-0.029 0.178-0.063 0.329-0.104 0.476l0.007-0.030c-0.022 0.073-0.043 0.146-0.069 0.217-0.023 0.072-0.053 0.142-0.080 0.213-0.030 0.069-0.059 0.139-0.094 0.207-0.032 0.069-0.068 0.135-0.103 0.203-0.037 0.065-0.074 0.131-0.114 0.195-0.039 0.065-0.079 0.129-0.123 0.19-0.050 0.075-0.093 0.135-0.138 0.194l0.007-0.009c-0.044 0.061-0.093 0.118-0.14 0.177-0.046 0.058-0.097 0.114-0.146 0.171l-0.153 0.166 0.040-0.082c-0.020 0.124-0.037 0.247-0.059 0.371l-0.033 0.185-0.034 0.184-0.037 0.184-0.040 0.183-0.041 0.183c-0.014 0.062-0.029 0.122-0.045 0.185l-0.021 0.081-0.081 0.025-1.135 0.36-0.053-0.139c-0.109-0.286-0.219-0.572-0.326-0.86l-0.321-0.862-1.927-5.169 0.086 0.081c-0.082-0.027-0.149-0.056-0.215-0.088l0.010 0.004c-0.208-0.097-0.386-0.216-0.545-0.356l0.002 0.002c-0.109-0.097-0.204-0.207-0.284-0.328l-0.004-0.006c-0.059-0.087-0.11-0.187-0.146-0.293l-0.002-0.009c-0.013-0.034-0.022-0.071-0.033-0.107l-0.013-0.041 0.023-0.045c0.035-0.074 0.074-0.147 0.109-0.225 0.033-0.077 0.070-0.153 0.101-0.231 0.066-0.157 0.129-0.315 0.19-0.474 0.060-0.159 0.121-0.319 0.178-0.479 0.059-0.16 0.115-0.321 0.173-0.482 0.113-0.322 0.223-0.646 0.331-0.97l0.322-0.974 0.010-0.032 0.029-0.013c0.343-0.156 0.685-0.322 1.018-0.503 0.166-0.090 0.33-0.184 0.487-0.287 0.078-0.051 0.156-0.106 0.227-0.164 0.036-0.030 0.071-0.061 0.102-0.093 0.030-0.029 0.054-0.064 0.072-0.102l0.001-0.002 0.009-0.023h0.023l1.123 0.025 0.003 0.002z"></path>
<path fill="#545454" style="fill: var(--color5, #545454)" d="M14.095 11.047c0.078 0.187-0.218-0.39-0.218-0.39s-0.186-0.499 0-1.030c0.187-0.53 0.747-1.747 0.778-2.465 1.183-0.187 2.21-1.17 2.21-1.17s0.827-0.016 0.927 0c0.101 0.015 0.68 0.145 1.666 1.632-0.651-0.867-1.465-0.93-1.465-0.93s-0.101 0.609-1.082 0.718c0.716-0.577 0.589-0.874 0.589-0.874s-0.416 0.969-1.638 1.279c0.707-0.562 0.614-1.030 0.614-1.030s-0.653 0.811-1.525 1.123c0.187 0.577 0.114 1.197 0.114 1.197s-0.619 1.012-0.386 1.73c0 0-0.043 0.43-0.043 0.613s-0.541-0.404-0.541-0.404z"></path>
<path fill="#a74d4a" style="fill: var(--color4, #a74d4a)" d="M19.514 5.994c-0.514-2.27-2.579-3.825-4.867-3.423s-3.815 2.586-3.414 4.878l0.154 0.882-0.363 0.691s0.83 0.922 3.785 0.632l1.631 0.312s0.782 0.352 3.293-0.8c1.745-0.767 1.511-1.145 1.511-1.145l-1.324-0.771c-0.001 0-0.311-0.843-0.405-1.257z"></path>
<path fill="#545454" style="fill: var(--color5, #545454)" d="M3.962 23.706s0.071-0.030 0.18-0.071c0.054-0.021 0.117-0.046 0.185-0.071 0.067-0.025 0.14-0.050 0.213-0.077 0.073-0.025 0.143-0.059 0.213-0.079 0.076-0.020 0.164-0.032 0.254-0.032 0.030 0 0.061 0.001 0.090 0.004l-0.004-0c0.035 0.003 0.057 0.008 0.057 0.008l0.005 0.017s-0.016 0.014-0.045 0.035c-0.088 0.062-0.191 0.112-0.302 0.143l-0.007 0.002c-0.070 0.018-0.149 0.024-0.223 0.038-0.076 0.014-0.151 0.029-0.223 0.041-0.071 0.013-0.139 0.023-0.196 0.032-0.114 0.018-0.191 0.029-0.191 0.029l-0.005-0.017zM3.745 22.903s0.076-0.034 0.192-0.081c0.058-0.024 0.126-0.053 0.199-0.081 0.073-0.029 0.151-0.059 0.229-0.089 0.078-0.029 0.154-0.066 0.228-0.090 0.096-0.029 0.206-0.046 0.32-0.046 0.038 0 0.075 0.002 0.111 0.005l-0.005-0 0.005 0.017s-0.017 0.015-0.049 0.038c-0.095 0.067-0.205 0.122-0.323 0.159l-0.008 0.002c-0.075 0.022-0.158 0.031-0.24 0.050s-0.162 0.037-0.239 0.051c-0.077 0.017-0.149 0.030-0.21 0.042-0.123 0.025-0.206 0.038-0.206 0.038l-0.005-0.017zM3.649 22.12s0.081-0.038 0.203-0.093c0.061-0.027 0.133-0.060 0.21-0.093 0.077-0.034 0.159-0.067 0.241-0.101 0.083-0.033 0.162-0.077 0.241-0.105 0.115-0.039 0.248-0.063 0.386-0.067l0.002-0c0.005-0 0.011-0 0.017-0 0.017 0 0.034 0.001 0.050 0.003l-0.002-0 0.006 0.016s-0.018 0.017-0.051 0.041c-0.1 0.073-0.216 0.135-0.339 0.179l-0.010 0.003c-0.080 0.025-0.169 0.040-0.254 0.063s-0.171 0.047-0.254 0.067c0.012 0-0.062 0.019-0.137 0.036l-0.085 0.017c-0.13 0.031-0.217 0.050-0.217 0.050l-0.006-0.016zM19.166 13.646s-2.227 0.771-3.175-0.134c1.571 1.233 3.358 0.488 3.358 0.488s-0.101-0.083-0.183-0.354zM14.865 9.646l0.045-0.015c0.029-0.010 0.071-0.026 0.125-0.043s0.12-0.039 0.195-0.062c0.075-0.023 0.161-0.050 0.254-0.075 0.094-0.026 0.194-0.057 0.301-0.084 0.107-0.029 0.218-0.061 0.335-0.089 0.117-0.030 0.237-0.063 0.359-0.093 0.122-0.030 0.247-0.059 0.37-0.093 0.125-0.029 0.249-0.059 0.371-0.091 0.060-0.016 0.121-0.030 0.182-0.043l0.176-0.046c0.116-0.029 0.229-0.058 0.334-0.085s0.206-0.056 0.298-0.081c0.093-0.025 0.177-0.051 0.251-0.074s0.141-0.040 0.192-0.061c0.053-0.019 0.096-0.033 0.125-0.042l0.045-0.015 0.009 0.015-0.157 0.085c-0.049 0.029-0.111 0.057-0.184 0.089-0.071 0.032-0.152 0.069-0.243 0.103s-0.189 0.074-0.294 0.107c-0.105 0.035-0.216 0.074-0.331 0.107l-0.177 0.054-0.182 0.050c-0.122 0.035-0.247 0.067-0.372 0.099s-0.251 0.059-0.375 0.087c-0.124 0.029-0.246 0.054-0.365 0.079-0.237 0.049-0.459 0.092-0.649 0.126-0.381 0.070-0.636 0.109-0.636 0.109l-0.003-0.017zM11.451 8.325s0.023 0.015 0.067 0.038c0.045 0.021 0.111 0.051 0.199 0.083l0.069 0.025c0.024 0.008 0.051 0.014 0.078 0.023 0.054 0.014 0.11 0.037 0.173 0.048l0.201 0.046 0.224 0.036c0.077 0.015 0.16 0.020 0.246 0.027 0.085 0.006 0.171 0.023 0.262 0.023l0.279 0.010c0.094 0.005 0.193-0.001 0.291-0.001l0.149-0.002c0.050 0 0.101 0 0.151-0.006 0.102-0.008 0.205-0.015 0.309-0.020l0.157-0.010c0.052-0.005 0.105-0.011 0.157-0.017l0.316-0.038c0.052-0.006 0.106-0.010 0.158-0.017l0.157-0.024 0.311-0.050c0.207-0.029 0.41-0.073 0.606-0.11 0.097-0.019 0.194-0.039 0.289-0.055s0.186-0.041 0.276-0.060c0.179-0.042 0.349-0.078 0.507-0.111l0.115-0.025 0.109-0.028 0.203-0.049c0.127-0.032 0.239-0.057 0.331-0.078 0.091-0.021 0.165-0.035 0.214-0.046 0.050-0.011 0.077-0.016 0.077-0.016l0.006 0.017s-0.102 0.033-0.282 0.091l-0.629 0.203-0.114 0.032-0.503 0.138c-0.089 0.023-0.18 0.053-0.275 0.073l-0.29 0.065c-0.198 0.042-0.4 0.095-0.61 0.126l-0.315 0.054-0.159 0.026c-0.053 0.008-0.107 0.012-0.161 0.019l-0.32 0.034c-0.054 0.006-0.107 0.013-0.161 0.017-0.053 0.002-0.106 0.005-0.159 0.007l-0.314 0.015c-0.027 0.002-0.058 0.002-0.090 0.002-0.023 0-0.046-0-0.069-0.001l0.003 0-0.152-0.002c-0.051 0-0.101-0.002-0.151-0.002-0.049 0-0.098-0.001-0.147-0.007-0.252-0.018-0.374-0.028-0.496-0.039l0.142 0.010-0.067-0.009c-0.045-0.007-0.089-0.014-0.131-0.020-0.086-0.014-0.17-0.023-0.248-0.044-0.079-0.017-0.155-0.035-0.226-0.051-0.331-0.091-0.398-0.112-0.465-0.133l0.265 0.072c-0.064-0.017-0.12-0.044-0.173-0.063-0.027-0.011-0.052-0.019-0.076-0.030s-0.046-0.023-0.067-0.032c-0.086-0.039-0.149-0.078-0.194-0.105-0.042-0.029-0.063-0.046-0.063-0.046l0.011-0.014z"></path>
<path fill="#545454" style="fill: var(--color5, #545454)" d="M13.521 2.958c0.149-0.065 0.306-0.11 0.468-0.136s0.326-0.040 0.49-0.035c0.165 0.006 0.331 0.020 0.492 0.062 0.041 0.009 0.082 0.019 0.121 0.031l0.12 0.035c0.078 0.029 0.157 0.056 0.233 0.090 0.152 0.069 0.301 0.146 0.44 0.238 0.070 0.046 0.141 0.090 0.206 0.144 0.065 0.051 0.133 0.101 0.193 0.16 0.059 0.057 0.124 0.111 0.18 0.173l0.17 0.183c0.104 0.129 0.213 0.255 0.303 0.394 0.098 0.134 0.178 0.278 0.265 0.419 0.042 0.071 0.078 0.145 0.117 0.217 0.038 0.074 0.079 0.145 0.112 0.22 0.065 0.15 0.138 0.298 0.194 0.451l0.089 0.229c0.031 0.076 0.054 0.154 0.081 0.232 0.026 0.077 0.053 0.154 0.077 0.232 0.026 0.078 0.045 0.157 0.067 0.235 0.043 0.157 0.089 0.313 0.123 0.472 0.019 0.079 0.038 0.158 0.054 0.238s0.034 0.158 0.047 0.239l0.085 0.479-0.075-0.083 0.215 0.074 0.107 0.038c0.036 0.013 0.071 0.024 0.107 0.039l0.213 0.085c0.017 0.006 0.034 0.016 0.053 0.025l0.051 0.026c0.034 0.017 0.069 0.034 0.106 0.055l-0.065-0.003 0.486-0.183c0.082-0.030 0.162-0.063 0.244-0.091l0.246-0.087 0.007 0.016-0.953 0.425-0.006-0.003c-0.025-0.013-0.058-0.028-0.092-0.043l-0.009-0.003-0.051-0.023c-0.017-0.006-0.034-0.015-0.053-0.021l-0.21-0.077c-0.034-0.014-0.071-0.024-0.107-0.035l-0.321-0.099-0.008-0.002-0.002-0.007-0.101-0.472c-0.023-0.11-0.042-0.188-0.063-0.266l0.007 0.032-0.059-0.234c-0.037-0.156-0.086-0.309-0.131-0.463-0.024-0.077-0.044-0.154-0.070-0.23l-0.078-0.229c-0.028-0.075-0.051-0.153-0.082-0.226l-0.089-0.225c-0.055-0.15-0.128-0.294-0.193-0.44-0.031-0.074-0.071-0.144-0.108-0.215s-0.073-0.143-0.113-0.213c-0.082-0.137-0.16-0.278-0.253-0.408-0.087-0.135-0.189-0.259-0.287-0.386l-0.161-0.179c-0.053-0.060-0.113-0.113-0.17-0.169-0.055-0.058-0.12-0.106-0.181-0.158-0.059-0.054-0.126-0.097-0.191-0.144-0.119-0.085-0.255-0.165-0.397-0.235l-0.017-0.008c-0.071-0.035-0.147-0.063-0.22-0.094l-0.114-0.038c-0.031-0.012-0.069-0.024-0.109-0.033l-0.006-0.001-0.116-0.030-0.118-0.022c-0.031-0.007-0.072-0.013-0.113-0.017l-0.006-0.001c-0.040-0.004-0.079-0.011-0.119-0.013-0.060-0.005-0.13-0.008-0.2-0.008-0.098 0-0.195 0.006-0.291 0.016l0.012-0.001c-0.173 0.018-0.331 0.054-0.481 0.106l0.015-0.004-0.006-0.017z"></path>
<path fill="#545454" style="fill: var(--color5, #545454)" d="M14.168 2.694l0.041-0.028c0.027-0.017 0.069-0.043 0.123-0.069 0.056-0.028 0.123-0.055 0.193-0.077l0.011-0.003c0.082-0.026 0.175-0.051 0.28-0.065 0.105-0.015 0.221-0.026 0.343-0.020 0.122 0.005 0.253 0.017 0.383 0.051 0.131 0.030 0.265 0.073 0.393 0.133 0.063 0.030 0.128 0.061 0.189 0.097 0.064 0.034 0.123 0.073 0.183 0.113 0.116 0.082 0.226 0.173 0.327 0.267s0.191 0.198 0.274 0.299c0.043 0.049 0.080 0.101 0.117 0.153s0.073 0.101 0.103 0.151c0.032 0.051 0.065 0.099 0.093 0.147l0.077 0.143c0.051 0.089 0.088 0.177 0.122 0.253 0.036 0.076 0.061 0.144 0.082 0.201 0.021 0.055 0.035 0.101 0.046 0.131l0.015 0.046-0.015 0.008-0.088-0.163c-0.041-0.078-0.076-0.138-0.113-0.197l0.007 0.013c-0.042-0.070-0.087-0.151-0.145-0.234-0.027-0.042-0.057-0.086-0.086-0.131l-0.1-0.135c-0.038-0.053-0.074-0.099-0.112-0.143l0.002 0.003c-0.039-0.046-0.077-0.096-0.12-0.142s-0.085-0.095-0.131-0.14c-0.046-0.045-0.091-0.092-0.141-0.135-0.142-0.129-0.3-0.247-0.469-0.348l-0.014-0.008c-0.057-0.035-0.117-0.065-0.175-0.094-0.273-0.135-0.594-0.214-0.933-0.214-0.038 0-0.075 0.001-0.112 0.003l0.005-0c-0.174 0.010-0.336 0.041-0.491 0.090l0.014-0.004c-0.112 0.035-0.171 0.066-0.171 0.066l-0.008-0.016z"></path>
<path fill="#545454" style="fill: var(--color5, #545454)" d="M19.909 7.263l-0.025-0.078c-0.016-0.050-0.043-0.123-0.076-0.216-0.067-0.19-0.109-0.299-0.153-0.408l0.027 0.077c-0.087-0.217-0.148-0.356-0.211-0.493l0.030 0.072c-0.050-0.113-0.088-0.19-0.127-0.267l0.014 0.031c-0.039-0.081-0.081-0.163-0.125-0.249-0.090-0.169-0.189-0.343-0.297-0.52-0.106-0.179-0.233-0.351-0.358-0.528-0.131-0.171-0.269-0.345-0.42-0.503-0.147-0.162-0.299-0.311-0.461-0.449l-0.007-0.006c-0.040-0.037-0.084-0.067-0.125-0.101l-0.124-0.101c-0.086-0.061-0.169-0.123-0.255-0.18-0.087-0.054-0.171-0.109-0.257-0.159-0.087-0.047-0.17-0.097-0.254-0.139-0.086-0.040-0.169-0.078-0.249-0.118-0.082-0.034-0.163-0.066-0.239-0.098-0.075-0.034-0.153-0.053-0.225-0.079-0.073-0.023-0.139-0.051-0.206-0.066l-0.184-0.050c-0.057-0.015-0.109-0.032-0.157-0.040-0.096-0.020-0.171-0.038-0.223-0.050l-0.080-0.017 0.002-0.018 0.309 0.037c0.049 0.005 0.103 0.016 0.161 0.027s0.122 0.023 0.189 0.037c0.069 0.011 0.138 0.034 0.213 0.053 0.074 0.021 0.154 0.037 0.234 0.067l0.249 0.086 0.262 0.11c0.088 0.040 0.176 0.087 0.267 0.133 0.091 0.047 0.178 0.103 0.27 0.156 0.090 0.057 0.178 0.119 0.269 0.18 0.087 0.067 0.175 0.132 0.261 0.203 0.169 0.144 0.337 0.297 0.489 0.465 0.155 0.165 0.294 0.344 0.427 0.522 0.127 0.183 0.25 0.365 0.355 0.55 0.174 0.293 0.341 0.637 0.482 0.995l0.017 0.050c0.081 0.199 0.168 0.458 0.242 0.723l0.013 0.056c0.050 0.192 0.071 0.303 0.071 0.303l-0.017 0.003z"></path>
<path fill="#545454" style="fill: var(--color5, #545454)" d="M18.491 29.206c-0.198 0.117-0.429 0.173-0.656 0.193-0.066 0.005-0.143 0.009-0.221 0.009-0.165 0-0.326-0.014-0.484-0.041l0.017 0.002c-0.316-0.050-0.597-0.123-0.866-0.222l0.032 0.010-0.082-0.031c-0.023-0.009-0.053-0.018-0.078-0.029l-0.323-0.113c-0.43-0.154-0.857-0.313-1.283-0.476-0.774-0.288-1.194-0.459-1.611-0.635l0.34 0.128c-1.155-0.47-1.979-0.843-2.79-1.239l0.287 0.126c-0.411-0.199-0.82-0.406-1.223-0.624-0.202-0.109-0.401-0.223-0.598-0.341-0.099-0.058-0.196-0.121-0.294-0.181-0.097-0.061-0.193-0.125-0.29-0.189l0.070 0.024c-0.172-0.010-0.323-0.025-0.473-0.045l0.033 0.004c-0.145-0.018-0.29-0.040-0.434-0.066-0.339-0.060-0.627-0.131-0.907-0.218l0.052 0.014c-0.070-0.022-0.14-0.043-0.21-0.069-0.108-0.036-0.176-0.062-0.244-0.090l0.037 0.013c-0.069-0.027-0.138-0.054-0.206-0.085-0.068-0.029-0.135-0.063-0.202-0.094-0.066-0.035-0.133-0.069-0.197-0.107-0.065-0.036-0.128-0.077-0.191-0.118-0.062-0.043-0.125-0.085-0.184-0.131-0.061-0.046-0.118-0.097-0.175-0.146l0.13 0.036c-0.048 0.012-0.088 0.024-0.126 0.038l0.008-0.003c-0.040 0.014-0.075 0.030-0.107 0.050l0.003-0.001c-0.017 0.011-0.032 0.023-0.046 0.037l-0 0-0.003 0.003 0.003-0.005v0.001l-0.003 0.003-0.010 0.015c-0.013 0.021-0.017 0.028-0.030 0.050l-0.032 0.060c-0.084 0.166-0.163 0.343-0.238 0.518l-0.065 0.149-0.145-0.074c-0.084-0.043-0.152-0.082-0.218-0.125l0.010 0.006c-0.111-0.068-0.207-0.137-0.297-0.212l0.004 0.003c-0.031-0.026-0.062-0.053-0.091-0.082-0.031-0.029-0.060-0.061-0.089-0.093l-0.042-0.052c-0.014-0.018-0.026-0.038-0.039-0.057l-0.010-0.015-0.001-0.002-0.004-0.007-0.002-0.003-0.003-0.006-0.007-0.013-0.007-0.015-0.017-0.040-0.013-0.035c-0.013-0.040-0.023-0.087-0.030-0.135l-0-0.004c-0.011-0.091-0.009-0.178 0.001-0.263 0.015-0.134 0.042-0.256 0.082-0.373l-0.004 0.012c0.013-0.040 0.025-0.075 0.042-0.119l0.046 0.182c-0.071-0.060-0.128-0.134-0.17-0.217l-0.002-0.004c-0.036-0.074-0.062-0.159-0.074-0.249l-0-0.004c-0.005-0.042-0.008-0.091-0.008-0.14 0-0.038 0.002-0.075 0.005-0.112l-0 0.005c0.006-0.068 0.016-0.13 0.029-0.19l-0.002 0.010c0.005-0.021 0.009-0.038 0.017-0.063l0.029 0.144c-0.023-0.029-0.046-0.062-0.068-0.097l-0.003-0.005c-0.021-0.034-0.040-0.069-0.058-0.105-0.034-0.066-0.062-0.143-0.081-0.224l-0.001-0.007c-0.013-0.052-0.020-0.111-0.020-0.171 0-0.032 0.002-0.063 0.006-0.094l-0 0.004c0.013-0.096 0.045-0.183 0.093-0.259l-0.002 0.003 0.047 0.21c-0.073-0.049-0.133-0.113-0.175-0.189l-0.001-0.003c-0.035-0.064-0.063-0.137-0.079-0.215l-0.001-0.005c-0.016-0.072-0.025-0.154-0.025-0.238 0-0.029 0.001-0.057 0.003-0.086l-0 0.004 0.004-0.053c0.002-0.018 0.003-0.034 0.006-0.057l0.011-0.078 2.004-0.951 0.006-0.002 0.014-0.003c0.008-0.002 0.018-0.004 0.029-0.005l0.001-0c0.011 0 0.023-0.001 0.033 0 0.034 0.002 0.066 0.007 0.097 0.016l-0.003-0.001c0.053 0.013 0.097 0.029 0.141 0.046 0.087 0.035 0.168 0.073 0.249 0.113 0.161 0.078 0.315 0.163 0.469 0.249 0.306 0.173 0.606 0.353 0.903 0.539l0.007 0.005 0.007 0.006 0.531 0.44 0.53 0.443 1.057 0.887-0.045-0.023 1.934 0.522c0.643 0.175 1.289 0.346 1.931 0.526l2.896 0.802 0.963 0.272-0.004 0.017-7.758-2.016-2.131-1.752c-0.295-0.183-0.594-0.362-0.898-0.531-0.101-0.060-0.252-0.141-0.406-0.218l-0.055-0.025c-0.058-0.030-0.136-0.066-0.216-0.098l-0.021-0.008c-0.032-0.013-0.073-0.027-0.114-0.039l-0.008-0.002c-0.018-0.005-0.039-0.008-0.060-0.010l-0.001-0h-0.014c-0.004 0.001-0.007 0-0.013 0.003-0.007 0.001-0.019 0.008-0.029 0.011l-1.882 0.906 0.009-0.012c-0.015 0.122-0.014 0.249 0.011 0.369 0.013 0.061 0.033 0.12 0.062 0.173s0.070 0.097 0.119 0.13l0.001 0.001 0.014 0.009-0.009 0.014c-0.033 0.054-0.057 0.118-0.066 0.186l-0 0.002c-0.003 0.021-0.004 0.045-0.004 0.069 0 0.047 0.006 0.093 0.016 0.137l-0.001-0.004c0.015 0.066 0.040 0.131 0.070 0.193 0.031 0.061 0.067 0.12 0.109 0.173l0.006 0.007-0.002 0.009c-0.025 0.088-0.039 0.19-0.039 0.295 0 0.044 0.002 0.086 0.007 0.129l-0-0.005c0.010 0.069 0.028 0.137 0.058 0.199 0.031 0.064 0.074 0.118 0.125 0.162l0.001 0.001 0.010 0.008-0.005 0.011c-0.051 0.126-0.089 0.272-0.109 0.424l-0.001 0.009c-0.005 0.035-0.007 0.076-0.007 0.118 0 0.036 0.002 0.072 0.006 0.108l-0-0.004c0.008 0.059 0.023 0.112 0.044 0.162l-0.002-0.004c0.008 0.017 0.016 0.034 0.026 0.048s0.020 0.031 0.031 0.046l0.034 0.043c0.025 0.028 0.049 0.055 0.077 0.081 0.026 0.027 0.054 0.051 0.083 0.075s0.057 0.047 0.088 0.070c0.119 0.089 0.247 0.168 0.379 0.238l-0.023 0.008c0.077-0.177 0.157-0.354 0.246-0.527 0.022-0.043 0.046-0.087 0.073-0.128 0.014-0.022 0.030-0.041 0.048-0.058l0-0c0.018-0.016 0.038-0.030 0.059-0.043l0.002-0.001c0.038-0.023 0.082-0.044 0.129-0.061l0.006-0.002c0.046-0.017 0.093-0.030 0.141-0.041l0.008-0.002 0.006 0.006c0.054 0.046 0.107 0.094 0.165 0.137 0.056 0.046 0.115 0.085 0.174 0.126 0.061 0.038 0.12 0.078 0.183 0.113 0.062 0.037 0.126 0.070 0.189 0.103 0.065 0.031 0.129 0.064 0.194 0.093 0.066 0.030 0.132 0.056 0.198 0.083 0.067 0.025 0.134 0.051 0.202 0.074 0.067 0.024 0.135 0.046 0.204 0.067 0.274 0.085 0.554 0.151 0.836 0.203 0.282 0.051 0.567 0.089 0.853 0.107h0.005l0.003 0.002c0.096 0.062 0.19 0.126 0.286 0.187 0.097 0.060 0.193 0.122 0.291 0.179 0.194 0.118 0.391 0.231 0.59 0.343 0.398 0.221 0.803 0.431 1.211 0.633 0.529 0.278 1.346 0.658 2.176 1.016l0.31 0.119c0.838 0.355 1.683 0.695 2.536 1.017l0.32 0.119c0.054 0.019 0.107 0.041 0.16 0.061 0.233 0.090 0.508 0.168 0.793 0.219l0.028 0.004c0.224 0.038 0.451 0.057 0.678 0.041 0.226-0.014 0.451-0.065 0.65-0.176l0.009 0.017z"></path>
<path fill="#545454" style="fill: var(--color5, #545454)" d="M21.989 25.843l-0.436 0.469c-0.131 0.14-0.285 0.303-0.45 0.477-0.165 0.174-0.341 0.36-0.518 0.544l-0.262 0.278c-0.086 0.093-0.171 0.182-0.256 0.267-0.086 0.084-0.169 0.165-0.25 0.239-0.041 0.036-0.080 0.073-0.119 0.108-0.054 0.046-0.091 0.078-0.127 0.11l0.014-0.012c-0.293 0.252-0.503 0.4-0.503 0.4l-0.011-0.014s0.158-0.207 0.417-0.488l0.21-0.226c0.163-0.176 0.329-0.339 0.502-0.496l0.007-0.006 0.279-0.26c0.373-0.351 0.742-0.705 1.023-0.966l0.469-0.436 0.012 0.012z"></path>
<path fill="none" stroke="#a74d4a" style="stroke: var(--color4, #a74d4a)" stroke-linejoin="miter" stroke-linecap="butt" stroke-miterlimit="4" stroke-width="1.7143" d="M31.143 16c0 8.363-6.78 15.143-15.143 15.143s-15.143-6.78-15.143-15.143c0-8.363 6.78-15.143 15.143-15.143s15.143 6.78 15.143 15.143z"></path>
</symbol>
<symbol id="phone-icon-min" viewBox="0 0 32 32">
<path fill="#a74d4a" style="fill: var(--color4, #a74d4a)" d="M1.867 32c-0.533 0-0.978-0.178-1.333-0.533-0.33-0.328-0.534-0.782-0.534-1.283 0-0.018 0-0.035 0.001-0.053l-0 0.003v-7.2c0-0.414 0.133-0.777 0.401-1.090 0.265-0.312 0.606-0.512 1.021-0.599l6.133-1.245c0.416-0.059 0.838-0.021 1.268 0.111 0.43 0.134 0.777 0.335 1.044 0.6l4.178 4.177c2.34-1.428 4.365-3.030 6.177-4.844l0-0c1.766-1.75 3.311-3.719 4.591-5.864l0.075-0.135-4.267-4.357c-0.249-0.241-0.429-0.551-0.51-0.899l-0.002-0.012c-0.040-0.188-0.062-0.403-0.062-0.625 0-0.179 0.015-0.355 0.044-0.526l-0.003 0.019 1.157-6.223c0.059-0.414 0.251-0.756 0.578-1.021 0.295-0.249 0.679-0.401 1.099-0.401 0.004 0 0.008 0 0.013 0h7.199c0.533 0 0.978 0.178 1.333 0.533s0.533 0.8 0.533 1.333c0 3.822-0.853 7.549-2.557 11.179-1.763 3.729-4.028 6.919-6.755 9.646l-0 0c-2.727 2.727-5.916 4.991-9.44 6.666l-0.205 0.088c-3.627 1.705-7.352 2.558-11.174 2.555z"></path>
</symbol>
<symbol id="price-icon-min" viewBox="0 0 32 32">
<path fill="#a74d4a" style="fill: var(--color4, #a74d4a)" d="M2.875 25.786v-11.026c-0.585 0.226-1.131 0.23-1.585 0.075-0.354-0.121-0.651-0.334-0.871-0.61l-0.003-0.004c-0.219-0.278-0.359-0.616-0.402-0.99-0.065-0.578 0.108-1.233 0.599-1.846 0.026-0.030 0.053-0.060 0.085-0.086l14.245-11.161c0.093-0.085 0.217-0.138 0.354-0.138 0.122 0 0.233 0.042 0.322 0.111l-0.001-0.001 14.277 11.142c0.023 0.017 0.043 0.035 0.062 0.057 0.661 0.714 0.827 1.506 0.667 2.175-0.083 0.338-0.241 0.632-0.456 0.874l0.002-0.002c-0.216 0.243-0.487 0.431-0.795 0.544l-0.014 0.004c-0.499 0.181-1.094 0.176-1.695-0.11v2.572c-0.384-0.261-0.822-0.501-1.284-0.696l-0.050-0.019-0.063-0.026v-2.447c0-0.253-9.794-8.024-10.876-8.868-1.146 0.874-11.119 8.582-11.119 8.908v11.573l-1.398-0.005zM23.48 21.54v-0.575h0.965v0.561c0.455 0.022 0.861 0.090 1.307 0.186v1.031c-0.2-0.017-0.471-0.032-0.744-0.043l-0.038-0.001c-0.233-0.010-0.509-0.016-0.787-0.017h-0.002c-0.141 0-0.267 0.009-0.377 0.027-0.506 0.082-0.513 0.75 0.144 0.75h0.498c0.352 0 0.646 0.059 0.879 0.178s0.41 0.279 0.528 0.482c0.118 0.204 0.177 0.434 0.177 0.693v0.221c0 0.424-0.083 0.748-0.249 0.971s-0.403 0.374-0.71 0.452c-0.207 0.053-0.367 0.088-0.627 0.105v0.625h-0.965v-0.622c-0.464-0.024-0.862-0.076-1.314-0.184v-1.031c0.571 0.044 1.156 0.060 1.729 0.060 0.166 0 0.304-0.011 0.415-0.033 0.512-0.103 0.429-0.683-0.060-0.683h-0.4c-0.584 0-1.027-0.114-1.329-0.342s-0.453-0.61-0.453-1.145v-0.221c0-0.491 0.167-0.859 0.499-1.102 0.248-0.181 0.503-0.295 0.914-0.342zM23.908 18.093c0.822 0 1.609 0.166 2.326 0.463 0.768 0.325 1.424 0.773 1.975 1.325l0 0c1.101 1.105 1.782 2.629 1.782 4.312 0 0.002 0 0.004 0 0.006v-0c0 0.604-0.089 1.19-0.253 1.744-0.161 0.535-0.371 1.001-0.634 1.432l0.015-0.027 2.356 2.577c0.047 0.052 0.076 0.121 0.076 0.198 0 0.085-0.036 0.161-0.093 0.215l-0 0-1.729 1.585c-0.051 0.047-0.12 0.076-0.196 0.076-0.085 0-0.161-0.036-0.214-0.094l-0-0-2.253-2.487c-0.402 0.25-0.865 0.462-1.354 0.615l-0.043 0.012c-0.525 0.166-1.128 0.261-1.754 0.261-0.002 0-0.005 0-0.007 0h0c-0.823 0-1.609-0.165-2.326-0.463-0.769-0.325-1.425-0.773-1.975-1.325l-0-0-0.013-0.014c-0.545-0.55-0.986-1.203-1.292-1.928l-0.015-0.040c-0.292-0.689-0.462-1.49-0.462-2.33 0-0.001 0-0.003 0-0.004v0c0-0.826 0.165-1.615 0.462-2.336 0.323-0.771 0.77-1.429 1.321-1.982l-0 0c0.551-0.553 1.207-1.001 1.935-1.31l0.040-0.015c0.686-0.293 1.484-0.463 2.322-0.463 0.001 0 0.003 0 0.004 0h-0zM27.341 20.753c-0.44-0.441-0.964-0.798-1.545-1.045l-0.032-0.012-0.015-0.007c-0.543-0.229-1.173-0.362-1.835-0.362-0.002 0-0.004 0-0.006 0h0c-0.66 0-1.287 0.131-1.858 0.369-0.613 0.259-1.136 0.616-1.575 1.057l-0 0c-0.44 0.442-0.796 0.968-1.042 1.551l-0.012 0.032-0.007 0.014c-0.228 0.544-0.36 1.177-0.36 1.841 0 0.003 0 0.005 0 0.008v-0c0 0.662 0.131 1.291 0.367 1.864 0.258 0.615 0.614 1.14 1.054 1.581l-0-0c0.439 0.441 0.962 0.798 1.543 1.046l0.032 0.012c0.547 0.233 1.184 0.368 1.852 0.368 0.002 0 0.004 0 0.007 0h-0c0.658 0 1.286-0.131 1.856-0.368 1.195-0.507 2.127-1.442 2.619-2.607l0.012-0.032c0.232-0.549 0.367-1.187 0.367-1.857 0-0.003 0-0.005 0-0.008v0c0-0.661-0.131-1.291-0.366-1.863-0.258-0.616-0.614-1.141-1.054-1.584l0 0zM15.814 13.956v4.508h2.009c-0.267 0.286-0.516 0.596-0.741 0.925l-0.017 0.027h-1.251v3.103c-0.066 0.379-0.105 0.815-0.105 1.26v0c0 0.167 0.006 0.333 0.017 0.498h-5.838v-5.828c0-1.506 0.614-2.874 1.6-3.864 0.988-0.99 2.352-1.607 3.852-1.607s2.863 0.617 3.849 1.607c0.565 0.566 1.007 1.254 1.283 2.022l0.012 0.038-0.025 0.010c-0.334 0.14-0.608 0.277-0.872 0.429l0.038-0.020c-0.234-0.707-0.613-1.312-1.105-1.805l0 0c-0.712-0.715-1.658-1.193-2.706-1.303zM14.865 23.328v-3.912h-4.029v3.914l4.029-0.003zM14.865 18.464v-4.508c-1.051 0.113-1.995 0.589-2.707 1.303-0.816 0.819-1.323 1.95-1.323 3.192v0.013h4.030zM8.886 25.315h6.979c0.078 0.376 0.168 0.695 0.278 1.005l-0.016-0.053h-7.24v-0.952zM27.695 1.287v5.589l-4.287-2.839v-2.75h4.287z"></path>
</symbol>
<symbol id="quality-icon-min" viewBox="0 0 32 32">
<path fill="#a74d4a" style="fill: var(--color4, #a74d4a)" d="M6.488 16.12l0.107 0.020 0.027 0.005c0.232 0.048 0.457 0.116 0.645 0.191v-6.518c0-0.032-0.004-0.064-0.013-0.094l8.562-6.058 8.374 6.056c-0.005 0.022-0.007 0.045-0.007 0.070v6.037l0.574 0.433c0.067-0.015 0.136-0.028 0.205-0.041v-6.002c1.635 0.718 3.054-1.061 1.708-2.408-0.014-0.014-0.030-0.027-0.046-0.039l-10.64-7.695c-0.073-0.052-0.163-0.079-0.255-0.076s-0.18 0.037-0.248 0.095l-10.617 7.712c-0.023 0.016-0.044 0.036-0.063 0.057h-0.001c-1.131 1.308 0.014 2.93 1.686 2.332v5.924zM4.050 25.081c-0.377 0-0.682 0.284-0.682 0.634s0.306 0.635 0.682 0.635c0.377 0 0.682-0.284 0.682-0.635s-0.305-0.634-0.682-0.634zM23.908 19.542c-0-0.006-0-0.012-0-0.019 0-0.114 0.009-0.226 0.025-0.335l-0.002 0.012-1.342-0.833c-0.337-0.208-0.538-0.338-0.737-0.471l0.121 0.076c-1.673-1.091-3.257-1.769-5.325-1.271-1.206 0.29-1.495 0.806-2.267 1.661-0.028 0.049-0.067 0.091-0.113 0.124l-2.485 2.75c0.127 0.604 0.698 0.864 1.32 0.816 0.842-0.065 1.671-0.822 2.289-1.348 0.318-0.271 0.637-0.541 0.972-0.727 0.774-0.429 1.544-0.444 2.306 0.746l3.907 6.555h1.328l0.001-7.736zM24.222 18.494c0.060-0.078 0.13-0.15 0.207-0.215 0.342-0.285 0.83-0.424 1.456-0.425v-0.002l3.396 0.001c1.352-0.005 2.437 0.473 2.254 1.906l-0.751 7.218c-0.097 1.149-0.648 2.081-2.027 2.027l-3.054 0.001c-0.428 0.021-0.79-0.087-1.094-0.313-0.223-0.165-0.406-0.39-0.554-0.672h-1.056c0.142 0.387 0.135 0.754 0.022 1.080-0.117 0.336-0.344 0.622-0.635 0.836-0.279 0.206-0.615 0.35-0.98 0.407l-0.013 0.002c-0.354 0.054-0.725 0.024-1.070-0.109-0.401 0.39-0.822 0.635-1.263 0.748-0.442 0.113-0.889 0.090-1.342-0.058-0.43 0.443-0.905 0.721-1.428 0.826-0.533 0.107-1.1 0.033-1.7-0.23-0.169 0.125-0.363 0.234-0.57 0.316l-0.017 0.006c-0.249 0.098-0.536 0.155-0.838 0.155-0.026 0-0.052-0-0.078-0.001l0.004 0c-0.761-0.021-1.274-0.23-1.682-0.57-0.39-0.324-0.651-0.739-0.945-1.217l-1.684-2.731h-1.305c-0.199 0.928-0.808 1.508-1.903 1.487l-2.848 0.001c-1.514 0.229-1.962-1.14-2.089-2.26l-0.004-0.031-0.588-6.782c-0.198-1.241 0.305-2.086 1.722-2.147l0.049-0.002 3.606 0.001c0.881-0.009 1.776 0.217 2.053 1.083h2.453c0.617-0.387 1.194-0.691 1.833-0.876 0.626-0.182 1.299-0.246 2.102-0.157 0.858-0.949 1.244-1.486 2.592-1.81 2.341-0.563 4.090 0.151 5.976 1.38 0.197 0.128 0.392 0.256 0.603 0.387l1.193 0.739zM6.757 19.304c-0.010-0.032-0.016-0.068-0.016-0.106 0-0.010 0-0.019 0.001-0.029l-0 0.001c-0.114-0.624-0.742-0.694-1.32-0.688h-0.005v0.001h-3.621c-0.941 0.041-1.099 0.512-0.969 1.313l0.004 0.034 0.59 6.8c0.074 0.647 0.242 1.768 1.204 1.606 0.024-0.004 0.048-0.006 0.071-0.006l2.895 0.001c0.952 0.015 1.143-0.67 1.167-1.431l-0.001-7.497zM7.551 26.743h1.458c0.154 0 0.287 0.081 0.353 0.201l1.789 2.902c0.262 0.425 0.494 0.793 0.785 1.036 0.273 0.227 0.629 0.367 1.176 0.383 0.014 0 0.030 0.001 0.046 0.001 0.195 0 0.382-0.037 0.554-0.104l-0.010 0.004c0.129-0.051 0.24-0.111 0.344-0.182l-0.006 0.004-1.166-2.029c-0.244-0.427 0.454-0.773 0.698-0.347l1.267 2.206c0.472 0.223 0.899 0.292 1.284 0.215 0.352-0.070 0.683-0.267 0.995-0.584l-1.826-2.666c-0.279-0.407 0.388-0.802 0.667-0.395l1.925 2.811c0.337 0.127 0.661 0.157 0.97 0.077 0.295-0.076 0.589-0.251 0.884-0.535l-1.743-3.053c-0.245-0.429 0.456-0.775 0.701-0.347l1.803 3.158c0.234 0.127 0.506 0.16 0.767 0.12 0.239-0.037 0.451-0.129 0.632-0.261l-0.004 0.003c0.173-0.128 0.308-0.294 0.374-0.483 0.072-0.208 0.065-0.453-0.059-0.719-0.021-0.043-0.033-0.093-0.033-0.147 0-0.008 0-0.017 0.001-0.025l-0 0.001c-0.056-0.023-0.104-0.056-0.143-0.097l-0-0c-0.038-0.040-0.066-0.089-0.082-0.143l-0.001-0.003-3.959-6.643c-0.44-0.684-0.836-0.702-1.22-0.49-0.272 0.151-0.558 0.394-0.844 0.638-0.786 0.668-1.658 1.456-2.758 1.541-1.13 0.087-2.099-0.543-2.196-1.633-0.001-0.009-0.001-0.019-0.001-0.030 0-0.103 0.045-0.197 0.116-0.261l0-0 2.139-2.368c-0.455-0.006-0.857 0.052-1.235 0.162-0.576 0.167-1.114 0.458-1.702 0.831-0.070 0.052-0.156 0.079-0.246 0.080h-2.493v7.174zM27.396 25.081c-0.377 0-0.683 0.284-0.683 0.634s0.306 0.635 0.683 0.635c0.377 0 0.682-0.284 0.682-0.635s-0.305-0.634-0.682-0.634zM13.649 7.283h4.256c0.15 0 0.272 0.111 0.272 0.248v2.798c0 0.137-0.122 0.248-0.272 0.248h-4.256c-0.15 0-0.272-0.111-0.272-0.248v-2.798c0-0.137 0.122-0.248 0.272-0.248zM17.736 9.082h-1.787v1.094h1.787v-1.094zM15.519 9.082h-1.701v1.094h1.701v-1.094zM13.818 8.777h1.701v-1.095h-1.701v1.095zM15.949 8.777h1.787v-1.095h-1.787v1.095zM13.256 12.277h4.664c0.21 0 0.379 0.162 0.379 0.363v1.448c-0.082-0.003-0.178-0.005-0.274-0.005-0.17 0-0.338 0.005-0.505 0.016l0.023-0.001v-1.096h-3.908v1.403l-0.757 0.245v-2.011c0-0.2 0.169-0.363 0.379-0.363z"></path>
</symbol>
<symbol id="rehau-icon-min" viewBox="0 0 140 32">
<path fill="#5a5e5e" style="fill: var(--color7, #5a5e5e)" d="M106.218 11.051c0-2.208 1.135-2.775 2.912-2.368v6.414h-2.912v-4.046zM98.186 8.091v23.089c0 0.228 0.070 0.296 0.301 0.296h7.731v-11.643h2.912v11.643h8.033v-27.826h-15.463c-1.329 0-2.087 0.555-2.634 1.359-0.516 0.759-0.881 1.865-0.881 3.082zM46.876 14.997v-6.512c1.574 0 2.145-0.247 2.533 1.26 0.512 1.982 0.536 5.955-2.533 5.253zM38.843 31.181c0 0.228 0.070 0.296 0.301 0.296h7.732v-11.643c1.13 0 2.912-0.663 2.912 2.171v9.275h8.132v-11.248c0-1.389-0.706-2.649-2.108-2.763 0.386-0.264 1.908-0.85 1.908-2.368v-6.415c0-1.251-0.7-2.672-1.329-3.332-0.781-0.82-1.718-1.503-3.291-1.503h-14.258v27.53zM76.396 31.477h8.033v-11.643h2.912v11.643h7.731c0.231 0 0.301-0.068 0.301-0.296v-27.53h-8.033v11.446h-2.912v-11.446h-8.033v27.826zM134.835 9.276c-0.989 0-2.108-0.934-2.108-1.776 0-0.869-0.094-1.273 0.673-2.003 1.275-1.213 3.745-0.418 3.745 1.608 0 1.243-1.026 2.171-2.31 2.171zM119.974 25.655c0 2.125 0.619 4.245 2.581 5.16 2.457 1.145 11.359 1.185 13.855 0.039 1.74-0.799 2.541-2.635 2.541-5.1v-22.103h-8.033v21.116c0 1.802-0.607 2.171-1.707 2.171-0.892 0-1.205-1.255-1.205-2.171v-21.116h-8.033v22.004zM60.632 31.476l13.254-0.099v-4.736h-5.221v-6.809h5.221v-4.736h-5.221v-6.71h5.221v-4.736h-13.254v27.825z"></path>
<path fill="#5a5e5e" style="fill: var(--color7, #5a5e5e)" d="M135.237 7.203c0.201 0.373 0.507 0.679 0.603 1.085-0.633-0.052-0.474-0.566-0.858-0.933-0.242-0.229-0.042-0.152-0.548-0.152v1.085h-0.402v-2.467c0.731 0 1.908-0.169 1.908 0.691 0 0.489-0.235 0.652-0.703 0.691zM133.028 6.907c0 1.302 0.757 2.162 1.895 2.137 2.519-0.054 2.526-3.913-0.088-3.913-0.906 0-1.807 0.857-1.807 1.776z"></path>
<path fill="#5a5e5e" style="fill: var(--color7, #5a5e5e)" d="M134.434 7.006h0.502c0.873 0 0.812-0.888 0.301-0.888h-0.803v0.888z"></path>
<path fill="#e9128b" style="fill: var(--color8, #e9128b)" d="M7.816 26.938c0.099 0.363 0.044 0.201 0.295 0.401l1.371 1.020c0.35 0.227 0.608 0.427 0.978 0.619 3.922 2.036 8.238 2.63 12.386 0.593 1.196-0.587 3.079-1.78 3.934-2.844 0.137-0.17 0.233-0.247 0.393-0.404 1.782-1.747 2.935-5.069 2.935-7.772-0.791 0.521-2.136 1.667-3.273 2.408l-3.536 2.15c-0.8 0.476-1.763 0.886-2.633 1.261-3.218 1.387-5.581 1.932-9.104 2.401-1.168 0.156-2.337 0.167-3.746 0.167z"></path>
<path fill="#a4cc3a" style="fill: var(--color9, #a4cc3a)" d="M0.687 14.899c0 2.795 0.403 5.069 1.866 7.244 0.315 0.468 1.31 1.799 1.723 2.155 0.492 0.423 1.82 1.534 2.336 1.652-0.416-1.752-0.502-5.218-0.502-7.203 0-4.121 0.848-7.314 2.071-10.693 0.223-0.617 0.486-1.245 0.773-1.806 0.399-0.777 0.308-0.769 0.867-1.714 0.317-0.536 0.613-1.125 0.908-1.673-1.341 0.307-2.67 0.995-3.822 1.671-0.315 0.185-0.52 0.341-0.838 0.558l-1.538 1.252c-0.291 0.241-0.367 0.453-0.655 0.738-1.488 1.47-3.188 4.905-3.188 7.819z"></path>
<path fill="#bcbebe" style="fill: var(--color10, #bcbebe)" d="M12.636 1.48v0.197c0.606 0.050 2.324 0.863 2.97 1.127 0.893 0.365 1.964 0.919 2.821 1.372 2.515 1.331 5.18 3.2 7.187 5.173 1.717 1.687 1.456 1.403 3.010 3.258 0.338 0.403 0.581 0.776 0.896 1.192l1.692 2.482c0.177-0.364 0.402-2.523 0.402-3.157 0-3.218-1.294-6.874-3.539-9.054-0.275-0.267-0.473-0.477-0.752-0.741l-0.871-0.723c-1.771-1.312-4.63-2.605-6.989-2.605-2.091 0-3.774 0.053-5.659 0.952-0.393 0.188-0.755 0.433-1.169 0.528z"></path>
</symbol>
<symbol id="reliability-icon-min" viewBox="0 0 32 32">
<path fill="#a74d4a" style="fill: var(--color4, #a74d4a)" d="M10.414 15.657v-4.178c-0.432 0.176-0.836 0.179-1.172 0.058-0.264-0.096-0.483-0.261-0.643-0.474l-0.003-0.004c-0.162-0.216-0.266-0.479-0.297-0.77-0.048-0.45 0.079-0.959 0.443-1.436 0.018-0.024 0.039-0.047 0.063-0.066l10.528-8.681c0.067-0.066 0.159-0.108 0.261-0.108 0.091 0 0.174 0.033 0.238 0.087l10.552 8.664c0.017 0.013 0.032 0.027 0.046 0.045 0.489 0.555 0.611 1.171 0.493 1.692-0.060 0.262-0.177 0.49-0.338 0.68l0.002-0.002c-0.157 0.188-0.358 0.334-0.588 0.423l-0.010 0.003c-0.369 0.14-0.808 0.136-1.253-0.086v6.179c-0.383 0.040-0.734 0.118-1.068 0.231l0.034-0.010v-6.879c0-0.197-7.238-6.24-8.037-6.897-0.847 0.68-8.218 6.675-8.218 6.928v4.713c-0.032-0.011-0.129-0.034-0.226-0.055l-0.061-0.011c-0.097-0.022-0.209-0.036-0.324-0.038l-0.002-0-0.42-0.010zM0 16.323h4.931l-0.281 12.808h-4.65v-12.809zM6.036 28.097l0.234-10.632 4.527 0.112c1.911 0.411 3.806 1.557 5.698 2.881l3.516 0.086c1.589 0.141 2.385 1.865 0.815 2.946-1.255 0.924-2.88 0.83-4.544 0.631-1.148-0.088-1.235 1.543-0.035 1.579 0.415 0.044 0.871-0.048 1.267-0.038 2.081 0.049 3.805-0.329 4.892-2.040l0.556-1.287 5.291-2.61c2.638-0.846 4.434 2.092 2.461 4.055-3.853 2.818-7.791 5.119-11.808 6.956-2.927 1.783-5.812 1.649-8.659-0.213l-4.213-2.426zM19.977 10.358v3.505h2.978v-0.010c0-0.967-0.375-1.845-0.978-2.482-0.526-0.556-1.225-0.928-2-1.013zM19.977 14.605v3.044h2.978v-3.044h-2.978zM19.276 17.647v-3.043h-2.978v3.044l2.978-0.001zM19.276 13.864v-3.506c-0.776 0.088-1.474 0.458-2 1.013-0.603 0.637-0.978 1.516-0.978 2.482v0.010h2.978zM19.626 9.598c1.109 0 2.116 0.48 2.845 1.249 0.731 0.772 1.183 1.836 1.183 3.005v4.533h-7.701c-0.075-0.021-0.141-0.050-0.201-0.088l0.003 0.002c-0.060-0.038-0.112-0.078-0.16-0.122l0.001 0.001v-4.326c0-1.171 0.454-2.236 1.183-3.005 0.73-0.77 1.738-1.249 2.847-1.249zM28.758 1.001v4.347l-3.168-2.208v-2.139h3.168z"></path>
</symbol>
<symbol id="request-icon-min" width="69" height="116" viewBox="0 0 69 116">
<path fill="#ffffff" d="M55.7308 0H13.2692C9.75001 0 6.37493 1.38879 3.88647 3.86087C1.398 6.33294 0 9.68578 0 13.1818V102.818C0 106.314 1.398 109.667 3.88647 112.139C6.37493 114.611 9.75001 116 13.2692 116H55.7308C59.25 116 62.6251 114.611 65.1135 112.139C67.602 109.667 69 106.314 69 102.818V13.1818C69 9.68578 67.602 6.33294 65.1135 3.86087C62.6251 1.38879 59.25 0 55.7308 0ZM34.5 110.727C30.0946 110.727 26.5385 107.195 26.5385 102.818C26.5385 98.4418 30.0946 94.9091 34.5 94.9091C38.9054 94.9091 42.4615 98.4418 42.4615 102.818C42.4615 107.195 38.9054 110.727 34.5 110.727ZM58.3846 89.6364H10.6154V15.8182H58.3846V89.6364Z" fill="black"/>
</symbol>
<symbol id="snaider-icon-min" viewBox="0 0 82 32">
<path fill="#009e4d" style="fill: var(--color11, #009e4d)" d="M9.277 4.651c-1.865-1.098-2.977-1.524-4.081-1.524-1.159 0-1.901 0.55-1.901 1.401 0 2.567 6.565 1.844 6.565 7.781 0 3.274-2.071 5.176-4.948 5.176-2.257 0-3.369-0.775-4.649-1.651v-3.673c1.847 1.623 2.977 2.195 4.402 2.195 1.234 0 1.901-0.572 1.901-1.572-0-2.794-6.565-1.771-6.565-7.884 0-2.948 1.92-4.9 4.912-4.9 1.444 0 2.746 0.402 4.365 1.326v3.325zM18.469 16.704c-1.095 0.527-2.020 0.777-2.943 0.777-3.058 0-5.034-2.362-5.034-5.955 0-3.528 2.053-6.020 4.92-6.020 0.886 0 2.019 0.301 2.924 0.748v2.7c-0.717-0.505-1.547-0.782-2.226-0.782-1.641 0-2.697 1.308-2.697 3.326 0 2.047 1.037 3.394 2.602 3.394 0.66 0 1.246-0.2 2.455-0.8l-0.001 2.61zM42.309 10.203c0.112-1.603 0.814-2.529 1.889-2.529 1.057 0 1.773 0.952 1.886 2.529h-3.775zM44.009 5.511c-2.683 0-4.593 2.513-4.593 6.049 0 3.563 1.986 5.922 5.047 5.922 0.678 0 2.318 0 3.881-1.533v-2.254c-1.28 1.209-2.126 1.625-3.219 1.625-1.724 0-2.779-1.183-2.875-3.203h6.247c0.13-4.216-1.957-6.604-4.489-6.604zM49.555 17.271h2.732v-11.548h-2.732v11.548zM59.888 14.115c-0.569 0.679-1.042 0.951-1.625 0.951-1.287 0-2.101-1.404-2.101-3.508 0-2.306 0.814-3.635 2.191-3.635 0.493 0 1.136 0.301 1.534 0.678v5.513zM59.888 0.213v6.016c-0.738-0.473-1.474-0.723-2.269-0.723-2.492 0-4.216 2.443-4.216 5.977 0 3.458 1.724 6.001 4.062 6.001 0.927 0 1.644-0.322 2.423-1.147v0.93h2.731v-17.054h-2.731zM66.663 10.203c0.114-1.603 0.812-2.53 1.885-2.53 1.058 0 1.782 0.953 1.895 2.529h-3.78zM68.361 5.511c-2.683 0-4.589 2.513-4.589 6.049 0 3.563 1.987 5.922 5.044 5.922 0.677 0 2.321 0 3.887-1.533v-2.254c-1.281 1.209-2.13 1.625-3.227 1.625-1.716 0-2.775-1.183-2.87-3.203h6.245c0.13-4.216-1.959-6.604-4.489-6.604zM76.94 9.029h0.040c0.811-2.404 1.719-3.531 2.772-3.531 0.546 0 1.017 0.276 1.809 1.053l-0.752 3.202c-0.717-0.6-1.189-0.851-1.622-0.851-1.002 0-1.643 1.253-2.248 3.371v4.982h-2.735v-11.545h2.735v3.319zM52.414 0.865c0.257 0.897-0.205 2.149-1.028 2.793-0.826 0.643-1.7 0.439-1.954-0.458-0.26-0.899 0.2-2.151 1.025-2.792 0.824-0.647 1.698-0.442 1.956 0.457zM28.308 9.921c0-3.129-1.604-4.41-3.187-4.41-1.076 0-1.961 0.602-2.752 1.93h-0.038v-7.227h-2.734v17.025h2.735v-7.317c0.64-1.227 1.186-1.752 1.826-1.752 0.851 0 1.416 0.802 1.416 2.527v4.057c0.917-0.625 1.849-1.009 2.734-1.151v-3.681zM35.166 5.506c-1.113 0-1.964 0.549-2.834 1.869v-1.653h-2.733v7.848c0.946 0.125 2.154 0.701 2.733 1.653v-5.393c0.719-1.43 1.229-1.906 1.908-1.906 0.775 0 1.363 0.678 1.363 2.306v7.011h2.734v-7.311c0-3.401-1.812-4.423-3.171-4.423zM39.847 20.557h-3.177v2.993h3.064v1.284h-3.064v3.088h3.271v1.283h-4.336v-9.929h4.242l0 1.282zM42.441 29.211h0.973v-9.938h-0.973v9.938zM48.231 23.645c0.69 0 1.117 0.631 1.149 1.621h-2.478c0.134-1.034 0.583-1.621 1.328-1.621zM46.885 26.127h3.466c0-2.424-0.834-3.593-2.142-3.593-1.356 0-2.299 1.33-2.299 3.313 0 1.813 0.851 3.486 2.383 3.486 0.835 0 1.375-0.246 1.973-0.772v-1.256c-0.578 0.501-1.138 0.791-1.727 0.791-0.942 0-1.502-0.67-1.654-1.969zM56.704 24.378c-0.559-0.509-0.933-0.658-1.359-0.658-0.891 0-1.508 0.906-1.508 2.233 0 1.352 0.656 2.166 1.671 2.166 0.417 0 0.814-0.144 1.305-0.434v1.272c-0.328 0.205-0.953 0.376-1.468 0.376-1.474 0-2.496-1.344-2.496-3.264 0-2.167 0.934-3.536 2.43-3.536 0.571 0 0.955 0.176 1.426 0.451l-0.001 1.393zM61.138 22.659h1.561v1.163h-1.561v3.36c0 0.769 0.42 0.992 0.704 0.992 0.352 0 0.715-0.163 1.109-0.486v1.21c-0.342 0.25-0.866 0.435-1.187 0.435-1.059 0-1.595-0.872-1.595-2.054v-3.458h-0.859v-0.144l1.828-2.372v1.354zM66.42 22.659v1.515h0.020c0.496-1.159 0.968-1.641 1.427-1.641 0.397 0 0.767 0.246 1.175 0.758l-0.516 1.137c-0.296-0.388-0.679-0.656-0.91-0.656-0.67 0-1.197 0.903-1.197 2.021v3.416h-0.971v-6.552h0.972zM79.012 24.378c-0.563-0.509-0.936-0.658-1.364-0.658-0.889 0-1.501 0.906-1.501 2.233 0 1.352 0.658 2.166 1.665 2.166 0.418 0 0.813-0.144 1.31-0.434v1.272c-0.334 0.205-0.96 0.376-1.474 0.376-1.471 0-2.498-1.344-2.498-3.264 0-2.167 0.939-3.536 2.434-3.536 0.572 0 0.953 0.176 1.429 0.451l0 1.393zM71.621 29.211h0.973v-6.551h-0.973v6.551zM72.626 20.305c0.095 0.316-0.071 0.763-0.364 0.991-0.295 0.228-0.606 0.155-0.695-0.162-0.089-0.32 0.072-0.763 0.368-0.991 0.292-0.231 0.602-0.158 0.691 0.162zM29.076 20.835c-0.172 0-0.244 0.037-0.314 0.141-0.027 0.041-0.039 0.082-0.049 0.163l-0.872 4.388c-0.205 1.539-1.63 3.076-3.488 3.076h-2.583l0.448-2.255h1.659c0.169 0 0.302-0.083 0.413-0.247 0.041-0.064 0.094-0.163 0.101-0.265l0.688-3.834c0.203-1.54 1.43-3.241 3.287-3.241h2.646l-0.338 2.074h-1.598zM29.672 23.509l0.295-1.42h2.688c0.332-2.059 0.071-3.966-0.871-5.215-1.907-2.529-5.895-1.669-8.867 2.101-0.464 0.585-0.856 1.219-1.213 1.865h1.618l-0.376 1.423h-1.933c-0.185 0.449-0.358 0.894-0.491 1.345h2.292l-0.367 1.423h-2.253c-0.385 2.174-0.14 4.201 0.83 5.488 1.883 2.496 5.86 1.619 8.83-2.151 0.52-0.656 0.949-1.363 1.337-2.090h-2.079l0.317-1.42h2.43c0.178-0.451 0.342-0.898 0.47-1.349h-2.656z"></path>
</symbol>
<symbol id="telegram-icon-min" viewBox="0 0 32 32">
<path fill="#000" style="fill: var(--color1, #000)" d="M16 0c-0.001 0-0.001 0-0.002 0-8.835 0-15.998 7.163-15.998 15.998 0 0.001 0 0.001 0 0.002v-0c0.003 8.835 7.165 15.997 16 16h0c0.001 0 0.001 0 0.002 0 8.835 0 15.998-7.163 15.998-15.998 0-0.001 0-0.001 0-0.002v0c-0.003-8.835-7.165-15.997-16-16h-0z"></path>
<path fill="#fff" style="fill: var(--color3, #fff)" d="M7.242 15.831c4.666-2.031 7.775-3.371 9.331-4.019 4.445-1.848 5.368-2.17 5.97-2.18 0.132-0.002 0.427 0.031 0.619 0.186 0.161 0.131 0.206 0.31 0.228 0.434 0.021 0.124 0.047 0.408 0.025 0.63-0.239 2.529-1.282 8.67-1.813 11.503-0.222 1.198-0.665 1.6-1.092 1.64-0.929 0.086-1.635-0.614-2.535-1.204-1.407-0.924-2.202-1.498-3.57-2.399-1.579-1.041-0.555-1.613 0.345-2.548 0.235-0.246 4.33-3.969 4.408-4.307 0.010-0.042 0.021-0.2-0.075-0.283-0.093-0.083-0.23-0.055-0.33-0.032-0.142 0.031-2.39 1.518-6.75 4.46-0.637 0.439-1.215 0.652-1.734 0.64-0.571-0.010-1.67-0.322-2.488-0.588-1-0.325-1.797-0.498-1.728-1.051 0.035-0.288 0.434-0.582 1.19-0.884z"></path>
</symbol>
<symbol id="viber-icon-min" viewBox="0 0 32 32">
<path fill="#7360f2" style="fill: var(--color12, #7360f2)" d="M24.131 0.825l0.578 0.119 0.056 0.010c1.496 0.309 2.85 1.006 3.942 1.973l0.008 0.007c1.057 0.934 1.85 2.161 2.267 3.606l-0.048-0.198c0.694 2.441 1.066 5.018 1.066 7.682s-0.372 5.241-1.018 7.484l-0.013 0.053c-0.403 1.392-1.196 2.618-2.261 3.56l0.009-0.008c-1.102 0.976-2.455 1.673-4.007 1.992l-0.578 0.117c-3.413 0.701-6.915 0.957-10.404 0.761l-4.648 3.818c-0.113 0.092-0.249 0.157-0.403 0.185-0.15 0.027-0.303 0.017-0.447-0.030l-0.006-0.002c-0.14-0.045-0.265-0.126-0.364-0.232l0 0c-0.094-0.101-0.16-0.228-0.188-0.374l-0.793-4.34-0.059-0.013c-1.398-0.359-2.658-1.064-3.678-2.013l-0.005-0.004c-0.985-0.915-1.724-2.091-2.121-3.471l0.048 0.198c-0.694-2.441-1.066-5.018-1.066-7.682s0.372-5.241 1.018-7.484l0.013-0.053c0.403-1.392 1.196-2.618 2.261-3.56 1.107-0.988 2.491-1.674 3.997-1.984l0.578-0.117-0.264 0.047c2.709-0.571 5.518-0.871 8.397-0.871s5.688 0.3 8.133 0.824zM9.304 6.41c-0.061-0.009-0.131-0.014-0.203-0.014-0.261 0-0.506 0.066-0.719 0.183l0.008-0.004h-0.024c-0.655 0.354-1.216 0.783-1.701 1.284l-0.002 0.002c-0.41 0.434-0.631 0.871-0.689 1.293-0.034 0.25-0.010 0.503 0.069 0.742l0.031 0.015c0.511 1.36 1.114 2.532 1.832 3.621l-0.042-0.067c1.001 1.65 2.144 3.074 3.449 4.331l0.007 0.006 0.041 0.054 0.064 0.043 0.039 0.042 0.047 0.037c1.378 1.205 2.933 2.267 4.607 3.129l0.129 0.061c1.965 0.983 3.159 1.447 3.876 1.641v0.008c0.21 0.060 0.399 0.087 0.593 0.087 0.61-0.041 1.187-0.269 1.641-0.647 0.552-0.45 1.021-0.981 1.385-1.569v-0.011c0.342-0.594 0.227-1.153-0.268-1.533-0.991-0.796-2.062-1.503-3.201-2.111-0.763-0.38-1.538-0.15-1.851 0.234l-0.669 0.776c-0.344 0.384-0.966 0.33-0.966 0.33l-0.018 0.010c-4.649-1.090-5.89-5.412-5.89-5.412s-0.058-0.587 0.373-0.888l0.838-0.619c0.402-0.299 0.681-1.010 0.25-1.709-0.702-1.105-1.458-2.067-2.299-2.946l0.006 0.007c-0.191-0.212-0.45-0.359-0.742-0.41l-0.008-0.001 0.004 0.002zM17.157 4.532c-0.002 0-0.004-0-0.006-0-0.229 0-0.438 0.087-0.596 0.229l0.001-0.001c-0.152 0.137-0.247 0.334-0.249 0.553v0c0 0.206 0.090 0.406 0.249 0.552 0.157 0.142 0.367 0.229 0.596 0.229 0.002 0 0.004 0 0.006-0h-0c2.154 0 3.941 0.645 5.356 1.883 0.7 0.648 1.263 1.433 1.647 2.313l0.017 0.044c0.373 0.879 0.543 1.819 0.499 2.76-0.004 0.103 0.013 0.205 0.052 0.301 0.042 0.102 0.1 0.189 0.173 0.261l0 0c0.153 0.15 0.36 0.244 0.589 0.252l0.001 0c0.012 0.001 0.025 0.001 0.039 0.001 0.219 0 0.42-0.078 0.575-0.208l-0.001 0.001c0.158-0.131 0.262-0.323 0.274-0.54l0-0.002c0.005-0.103 0.008-0.223 0.008-0.345 0-1.101-0.229-2.149-0.642-3.097l0.019 0.050c-0.494-1.138-1.187-2.103-2.043-2.893l-0.006-0.005-0.018-0.015c-1.755-1.539-3.976-2.325-6.54-2.325zM17.099 7.101c-0.001 0-0.003 0-0.005 0-0.23 0-0.439 0.087-0.598 0.23l0.001-0.001c-0.152 0.137-0.247 0.333-0.249 0.552v0c0 0.206 0.090 0.406 0.249 0.552 0.157 0.142 0.367 0.229 0.597 0.229 0.002 0 0.003 0 0.005 0h0.029c1.553 0.102 2.684 0.577 3.475 1.356 0.812 0.804 1.233 1.802 1.201 3.038-0.005 0.206 0.079 0.408 0.235 0.557 0.155 0.147 0.365 0.238 0.595 0.242h0.001c0.227 0.005 0.444-0.072 0.608-0.217 0.155-0.134 0.256-0.328 0.263-0.546l0-0.001c0.041-1.621-0.527-3.019-1.655-4.135v-0.003c-1.152-1.135-2.733-1.735-4.637-1.853l-0.029-0.003-0.086 0.002zM17.067 9.719c-0.022-0.002-0.049-0.003-0.075-0.003-0.094 0-0.184 0.014-0.269 0.040l0.007-0.002c-0.113 0.034-0.212 0.087-0.297 0.155l0.002-0.001c-0.084 0.067-0.154 0.15-0.204 0.244l-0.002 0.004c-0.054 0.1-0.086 0.218-0.086 0.344 0 0.209 0.087 0.398 0.228 0.531l0 0c0.077 0.075 0.169 0.137 0.271 0.179l0.006 0.002c0.104 0.043 0.217 0.066 0.331 0.067 0.712 0.035 1.166 0.232 1.452 0.495 0.288 0.266 0.502 0.693 0.541 1.361 0.003 0.111 0.030 0.215 0.076 0.308l-0.002-0.004c0.046 0.096 0.114 0.183 0.197 0.254 0.084 0.072 0.182 0.127 0.289 0.162 0.087 0.030 0.187 0.047 0.291 0.047 0.135 0 0.264-0.029 0.38-0.081l-0.006 0.002c0.105-0.047 0.194-0.111 0.268-0.19l0-0c0.072-0.075 0.129-0.166 0.166-0.266l0.002-0.005c0.026-0.072 0.041-0.155 0.041-0.241 0-0.024-0.001-0.048-0.003-0.071l0 0.003c-0.055-0.937-0.375-1.765-1.029-2.375-0.66-0.609-1.557-0.906-2.574-0.957z"></path>
</symbol>
<symbol id="work-icon-min" width="119" height="113" viewBox="0 0 119 113">
<path fill="#ffffff" d="M71.4 23.7895V11.8947H47.6V23.7895H71.4ZM11.9 35.6842V101.105H107.1V35.6842H11.9ZM107.1 23.7895C113.704 23.7895 119 29.0826 119 35.6842V101.105C119 107.707 113.704 113 107.1 113H11.9C5.2955 113 0 107.707 0 101.105L0.0594999 35.6842C0.0594999 29.0826 5.2955 23.7895 11.9 23.7895H35.7V11.8947C35.7 5.29316 40.9955 0 47.6 0H71.4C78.0045 0 83.3 5.29316 83.3 11.8947V23.7895H107.1Z" fill="black"/>
</symbol>
<symbol id="next-icon-min" viewBox="0 0 8 12">
<path d="M1.4 12L0 10.6L4.6 6L0 1.4L1.4 0L7.4 6L1.4 12Z"/>
</symbol>
<svg id="prev-icon-min" viewBox="0 0 8 12">
<path d="M5.99996 7.15256e-07L7.39996 1.4L2.79996 6L7.39996 10.6L5.99996 12L-3.57985e-05 6L5.99996 7.15256e-07Z"/>
</svg>

</defs>
</svg>
